<?xml version="1.0" encoding="UTF-8"?>
<svg version="1.1" xmlns="http://www.w3.org/2000/svg" width="512" height="512">
<path d="M0 0 C3.39526497 0.01611213 6.78934029 0.0000094 10.18457031 -0.01904297 C52.55112235 -0.06039385 94.81941089 8.47181098 132.39550781 28.39111328 C133.03955566 28.72449707 133.68360352 29.05788086 134.34716797 29.40136719 C151.72269742 38.42755954 166.96316486 50.22268097 180.89892578 63.92529297 C182.15259712 65.15319553 183.42961005 66.35720543 184.71191406 67.55517578 C191.01136226 73.53647002 196.18178662 80.47135073 201.39550781 87.39111328 C202.0500293 88.25446289 202.0500293 88.25446289 202.71777344 89.13525391 C209.4735086 98.10531198 215.14698561 107.47109377 220.39550781 117.39111328 C220.7382373 118.03274414 221.0809668 118.674375 221.43408203 119.33544922 C232.91968574 140.98710428 240.83432012 164.116792 246.14550781 188.01611328 C246.42527466 189.2638855 246.42527466 189.2638855 246.71069336 190.53686523 C247.33128914 193.48003169 247.87320587 196.42878794 248.39550781 199.39111328 C248.52119141 200.08695526 248.646875 200.78279724 248.77636719 201.49972534 C251.48997765 216.90193978 251.95536258 232.08901828 251.89550781 247.70361328 C251.89374542 248.93412415 251.89198303 250.16463501 251.89016724 251.43243408 C251.82813217 270.89060834 250.82867258 289.39340719 246.39550781 308.39111328 C246.13318359 309.53515625 245.87085938 310.67919922 245.60058594 311.85791016 C237.27779521 347.16490485 223.0665647 380.24982859 201.39550781 409.39111328 C199.71981387 411.71814116 198.05726393 414.05408524 196.39550781 416.39111328 C196.95834473 416.71289551 197.52118164 417.03467773 198.10107422 417.36621094 C205.15453155 421.45857162 209.45353721 426.02595837 211.85253906 433.89892578 C212.44139298 436.6017229 212.66101356 439.19406111 212.83300781 441.95361328 C213.31981794 448.64725253 215.24518064 453.7552562 220.33300781 458.26611328 C225.09058989 461.56729268 229.1140662 462.60597632 234.83300781 463.26611328 C241.52786678 464.24842893 245.09214113 465.96651677 249.77050781 470.89111328 C252.16854357 476.05611337 252.14932317 480.79134208 251.39550781 486.39111328 C249.08783882 491.36147726 246.13605258 493.74642665 241.39550781 496.39111328 C238.54282511 496.76846678 236.08441839 496.93017375 233.2401123 496.89447784 C232.43132094 496.90029161 231.62252958 496.90610537 230.78922939 496.91209531 C228.07370209 496.92671625 225.3590757 496.91280045 222.64355469 496.89904785 C220.67924283 496.90365593 218.71493442 496.91000823 216.75063324 496.91795683 C211.34853032 496.93468591 205.94670932 496.92638744 200.54460526 496.91401196 C194.72039103 496.90497846 188.896226 496.91892274 183.07202148 496.92993164 C171.66070244 496.94773961 160.24948849 496.94386671 148.83816528 496.93228108 C139.56584814 496.923256 130.2935605 496.92201875 121.02124023 496.92637634 C119.70271356 496.92698927 118.38418689 496.92760221 117.02570486 496.92823371 C115.0187878 496.92918546 113.01187075 496.9301503 111.00495371 496.93114128 C85.921495 496.94337946 60.83809366 496.93227998 35.7546438 496.91075369 C13.46563023 496.89177101 -8.82329192 496.89346951 -31.11230469 496.91259766 C-56.14964959 496.93401252 -81.18694379 496.94251156 -106.22429657 496.9301486 C-108.89293924 496.92886572 -111.56158192 496.92761689 -114.23022461 496.92637634 C-116.19987804 496.92545069 -116.19987804 496.92545069 -118.20932245 496.92450634 C-127.47297548 496.9210493 -136.73659613 496.9268894 -146.00024414 496.93629456 C-157.28599871 496.94750058 -168.57164195 496.94450386 -179.85738373 496.92317158 C-185.61808908 496.91264242 -191.37860867 496.9085712 -197.13931274 496.92176819 C-202.40952211 496.93365913 -207.67937298 496.92718391 -212.94954967 496.90585798 C-214.85928587 496.90137793 -216.76905215 496.90368948 -218.67876911 496.91336113 C-221.26931245 496.92547764 -223.85861853 496.91309875 -226.44909668 496.89447784 C-227.19528794 496.90384251 -227.94147921 496.91320717 -228.71028233 496.92285562 C-233.80950604 496.84930317 -236.65958627 495.56768326 -240.60449219 492.39111328 C-244.23282882 488.57181156 -244.91449677 485.50832322 -245.10449219 480.39111328 C-244.91449677 475.27390334 -244.23282882 472.210415 -240.60449219 468.39111328 C-236.11231969 464.88986119 -232.26848146 463.72192155 -226.72949219 463.01611328 C-219.10762796 461.79532905 -214.13397826 459.88318646 -209.31542969 453.75048828 C-206.01813764 448.29453742 -205.86871577 442.16524275 -205.14746094 435.95751953 C-204.02396085 428.57798301 -201.11260724 424.27726144 -195.38574219 419.61767578 C-193.52859147 418.33884831 -191.6276312 417.38019184 -189.60449219 416.39111328 C-190.12450806 415.69103149 -190.12450806 415.69103149 -190.6550293 414.97680664 C-201.89106144 399.79172435 -211.51764382 384.46287804 -219.60449219 367.39111328 C-219.89533691 366.7881543 -220.18618164 366.18519531 -220.48583984 365.56396484 C-237.38000974 330.27392106 -245.40720904 290.88395214 -245.12597656 251.91162109 C-245.10449189 248.39106451 -245.12596255 244.87254745 -245.15136719 241.35205078 C-245.17786646 220.3611681 -242.75518967 199.59593752 -237.41699219 179.26611328 C-236.97589111 177.55101562 -236.97589111 177.55101562 -236.52587891 175.80126953 C-228.06584783 143.94554274 -214.57227147 113.6909568 -194.60449219 87.39111328 C-193.93933594 86.51326172 -193.27417969 85.63541016 -192.58886719 84.73095703 C-187.29948653 77.94721883 -181.50084097 71.64430161 -175.60449219 65.39111328 C-174.87488281 64.60736328 -174.14527344 63.82361328 -173.39355469 63.01611328 C-167.03720441 56.3998379 -159.9124403 50.89926903 -152.60449219 45.39111328 C-152.05164551 44.96685059 -151.49879883 44.54258789 -150.92919922 44.10546875 C-108.37857741 11.55328902 -52.61939121 -0.29527428 0 0 Z " fill="#AFC81C" transform="translate(252.6044921875,7.60888671875)"/>
<path d="M0 0 C0.86389343 -0.00139984 1.72778687 -0.00279968 2.61785889 -0.00424194 C16.02233402 0.01362075 28.311475 1.01232901 41.0625 5.4375 C42.84914063 5.99630859 42.84914063 5.99630859 44.671875 6.56640625 C58.96569193 11.47349412 70.4456627 19.91461701 81.0625 30.4375 C81.81273437 31.13875 82.56296875 31.84 83.3359375 32.5625 C95.57179382 44.18890754 104.91536756 61.10031158 109.0625 77.4375 C109.35898437 78.58734375 109.65546875 79.7371875 109.9609375 80.921875 C111.76847983 89.04752401 112.44131756 97.05538349 112.625 105.375 C112.68349121 106.8132312 112.68349121 106.8132312 112.74316406 108.28051758 C112.770489 115.42660887 110.83873084 120.09062172 106.0625 125.4375 C100.6019346 129.07787693 94.53142333 128.56989068 88.1875 128.5 C87.40375 128.49548828 86.62 128.49097656 85.8125 128.48632812 C83.89579986 128.47464093 81.97913952 128.45670908 80.0625 128.4375 C80.11465612 132.45936651 80.20980153 136.47913163 80.3125 140.5 C80.32667969 141.63373047 80.34085937 142.76746094 80.35546875 143.93554688 C80.54973506 150.59888127 80.98415399 155.06853817 85.0625 160.4375 C88.09938165 163.2620123 91.32622993 164.31247301 95.375 165 C103.85595206 163.70629545 110.30834413 158.62853916 117.03515625 153.609375 C138.82188622 137.97915324 164.77562326 126.12950935 192.0625 128.4375 C198.2964666 130.01011695 202.66452418 134.07506942 206.0625 139.4375 C208.36720337 144.19995345 209.16592726 148.74924796 209.5 154 C209.98681013 160.69363925 211.91217283 165.80164292 217 170.3125 C221.75758208 173.6136794 225.78105839 174.65236304 231.5 175.3125 C238.19485897 176.29481565 241.75913331 178.01290349 246.4375 182.9375 C248.83553575 188.10250009 248.81631535 192.8377288 248.0625 198.4375 C245.75483101 203.40786398 242.80304477 205.79281337 238.0625 208.4375 C235.2098173 208.8148535 232.75141058 208.97656047 229.90710449 208.94086456 C229.09831313 208.94667833 228.28952177 208.95249209 227.45622158 208.95848203 C224.74069428 208.97310297 222.02606788 208.95918717 219.31054688 208.94543457 C217.34623502 208.95004265 215.38192661 208.95639494 213.41762543 208.96434355 C208.0155225 208.98107263 202.61370151 208.97277416 197.21159744 208.96039867 C191.38738322 208.95136518 185.56321819 208.96530946 179.73901367 208.97631836 C168.32769462 208.99412633 156.91648068 208.99025343 145.50515747 208.9786678 C136.23284033 208.96964272 126.96055269 208.96840547 117.68823242 208.97276306 C116.36970575 208.97337599 115.05117908 208.97398893 113.69269705 208.97462043 C111.68577999 208.97557218 109.67886294 208.97653702 107.6719459 208.977528 C82.58848719 208.98976618 57.50508585 208.9786667 32.42163599 208.95714041 C10.13262242 208.93815773 -12.15629973 208.93985623 -34.4453125 208.95898438 C-59.4826574 208.98039924 -84.5199516 208.98889828 -109.55730438 208.97653532 C-112.22594705 208.97525244 -114.89458973 208.97400361 -117.56323242 208.97276306 C-119.53288585 208.97183741 -119.53288585 208.97183741 -121.54233027 208.97089306 C-130.80598329 208.96743602 -140.06960394 208.97327612 -149.33325195 208.98268127 C-160.61900652 208.9938873 -171.90464977 208.99089058 -183.19039154 208.9695583 C-188.95109689 208.95902914 -194.71161649 208.95495791 -200.47232056 208.96815491 C-205.74252992 208.98004585 -211.01238079 208.97357063 -216.28255749 208.9522447 C-218.19229368 208.94776464 -220.10205996 208.9500762 -222.01177692 208.95974785 C-224.60232026 208.97186436 -227.19162635 208.95948547 -229.78210449 208.94086456 C-230.52829576 208.95022923 -231.27448702 208.95959389 -232.04329014 208.96924233 C-237.14251385 208.89568989 -239.99259408 207.61406998 -243.9375 204.4375 C-247.56583663 200.61819828 -248.24750458 197.55470994 -248.4375 192.4375 C-248.24750458 187.32029006 -247.56583663 184.25680172 -243.9375 180.4375 C-239.4453275 176.93624791 -235.60148928 175.76830826 -230.0625 175.0625 C-222.44063577 173.84171577 -217.46698607 171.92957318 -212.6484375 165.796875 C-209.35114546 160.34092413 -209.20172358 154.21162947 -208.48046875 148.00390625 C-207.37080962 140.71528188 -204.47153894 136.37869891 -198.9140625 131.6640625 C-189.55347687 125.85531964 -177.25057484 127.82194321 -167 130.0625 C-143.86717958 135.54552601 -125.05857969 147.55062476 -105.83422852 161.19165039 C-101.29503191 164.17318216 -97.4075852 165.39699053 -91.9375 164.4375 C-87.77796035 162.70991936 -84.87155227 160.75209209 -82.25 157.0625 C-80.28276069 151.62917238 -80.3633303 146.30025136 -80.25 140.5625 C-80.21583984 139.3971875 -80.18167969 138.231875 -80.14648438 137.03125 C-80.06430646 134.16676282 -79.99505579 131.30257015 -79.9375 128.4375 C-81.08347656 128.46070313 -82.22945312 128.48390625 -83.41015625 128.5078125 C-84.9400976 128.52658479 -86.47004606 128.54478341 -88 128.5625 C-88.75216797 128.57925781 -89.50433594 128.59601563 -90.27929688 128.61328125 C-96.26476115 128.66510345 -101.3903031 127.88477097 -106.6875 124.875 C-113.06666399 117.96423901 -112.39493711 108.7995401 -112.16015625 99.93359375 C-111.91167737 93.9888301 -111.16227288 88.26054301 -109.9375 82.4375 C-109.62232422 80.75720703 -109.62232422 80.75720703 -109.30078125 79.04296875 C-105.73756998 62.99982728 -97.28566971 47.31087426 -85.9375 35.4375 C-85.49325684 34.95522949 -85.04901367 34.47295898 -84.59130859 33.97607422 C-61.80740593 9.28504556 -32.80758562 -0.0050799 0 0 Z " fill="#84C52B" transform="translate(255.9375,295.5625)"/>
<path d="M0 0 C1.29584015 -0.00209976 1.29584015 -0.00209976 2.61785889 -0.00424194 C16.02233402 0.01362075 28.311475 1.01232901 41.0625 5.4375 C42.84914063 5.99630859 42.84914063 5.99630859 44.671875 6.56640625 C58.96569193 11.47349412 70.4456627 19.91461701 81.0625 30.4375 C81.81273437 31.13875 82.56296875 31.84 83.3359375 32.5625 C95.57179382 44.18890754 104.91536756 61.10031158 109.0625 77.4375 C109.35898437 78.58734375 109.65546875 79.7371875 109.9609375 80.921875 C111.76847983 89.04752401 112.44131756 97.05538349 112.625 105.375 C112.68349121 106.8132312 112.68349121 106.8132312 112.74316406 108.28051758 C112.770489 115.42660887 110.83873084 120.09062172 106.0625 125.4375 C100.6019346 129.07787693 94.53142333 128.56989068 88.1875 128.5 C87.40375 128.49548828 86.62 128.49097656 85.8125 128.48632812 C83.89579986 128.47464093 81.97913952 128.45670908 80.0625 128.4375 C80.0531543 127.42550537 80.04380859 126.41351074 80.03417969 125.37084961 C79.99367179 121.54035749 79.92776141 117.71061854 79.85498047 113.88061523 C79.82711716 112.23716054 79.80573446 110.59358045 79.79150391 108.94995117 C79.66164745 94.7826123 78.03071991 81.78593073 71.25 69.0625 C70.90670654 68.39750488 70.56341309 67.73250977 70.2097168 67.04736328 C67.37245116 61.69917957 64.02567725 57.01496973 60.0625 52.4375 C59.340625 51.4475 58.61875 50.4575 57.875 49.4375 C46.85686539 36.52338768 30.1668059 30.00770369 14.0625 26.4375 C13.27488281 26.24542969 12.48726563 26.05335938 11.67578125 25.85546875 C-8.69322463 22.59764569 -28.76419521 27.84790229 -45.69140625 39.30078125 C-47.84497729 40.9442001 -49.89253939 42.66206349 -51.9375 44.4375 C-52.79988281 45.06978516 -52.79988281 45.06978516 -53.6796875 45.71484375 C-67.69518319 56.33949371 -75.98029009 75.6154656 -78.9375 92.4375 C-79.62476861 98.72791448 -79.63277217 105.05393569 -79.6875 111.375 C-79.71574631 113.04104534 -79.74568532 114.70706288 -79.77734375 116.37304688 C-79.85016498 120.39447938 -79.90035789 124.41558629 -79.9375 128.4375 C-82.62527802 128.4919207 -85.31193212 128.53137266 -88 128.5625 C-88.75216797 128.57925781 -89.50433594 128.59601563 -90.27929688 128.61328125 C-96.26476115 128.66510345 -101.3903031 127.88477097 -106.6875 124.875 C-113.06666399 117.96423901 -112.39493711 108.7995401 -112.16015625 99.93359375 C-111.91167737 93.9888301 -111.16227288 88.26054301 -109.9375 82.4375 C-109.72738281 81.31730469 -109.51726562 80.19710937 -109.30078125 79.04296875 C-105.73756998 62.99982728 -97.28566971 47.31087426 -85.9375 35.4375 C-85.49325684 34.95522949 -85.04901367 34.47295898 -84.59130859 33.97607422 C-61.80740593 9.28504556 -32.80758562 -0.0050799 0 0 Z " fill="#490C12" transform="translate(255.9375,295.5625)"/>
<path d="M0 0 C11.85091437 6.33247342 22.91973793 13.85031444 33.8659668 21.61743164 C38.40516341 24.59896341 42.29261011 25.82277178 47.76269531 24.86328125 C52.369538 22.94992234 55.17389529 20.83848128 57.76269531 16.55078125 C58.09269531 15.66390625 58.42269531 14.77703125 58.76269531 13.86328125 C59.09269531 13.86328125 59.42269531 13.86328125 59.76269531 13.86328125 C59.90881718 18.36293562 59.99704761 22.86197363 60.07519531 27.36328125 C60.13803711 29.2659375 60.13803711 29.2659375 60.20214844 31.20703125 C60.29958151 38.68989116 59.99602666 44.20146187 54.76269531 49.86328125 C49.34986529 54.19354527 42.34900092 53.51962225 35.76269531 52.86328125 C25.71352675 50.83451236 18.92643778 44.66351116 11.59863281 37.8515625 C-2.89150252 24.47396565 -21.4433697 12.87637008 -41.81933594 13.58203125 C-45.25111824 13.98120464 -47.4921876 14.75165272 -50.23730469 16.86328125 C-52.0864943 21.25270711 -52.47744183 25.13270719 -52.61230469 29.86328125 C-52.95161607 35.50656522 -53.27203011 38.78471311 -57.23730469 42.86328125 C-60.75062043 45.1465345 -63.98581023 45.18579762 -68.11230469 45.36328125 C-72.85179385 45.5680108 -76.83462672 46.02666115 -81.23730469 47.86328125 C-83.86813723 51.92911337 -83.53447572 56.18283754 -83.23730469 60.86328125 C-82.76984103 63.21649973 -82.76984103 63.21649973 -81.23730469 64.86328125 C-78.20385798 66.63055983 -78.20385798 66.63055983 -75.23730469 67.86328125 C-75.23730469 68.19328125 -75.23730469 68.52328125 -75.23730469 68.86328125 C-78.94537065 68.9800283 -82.65296008 69.05071399 -86.36230469 69.11328125 C-87.40902344 69.14679688 -88.45574219 69.1803125 -89.53417969 69.21484375 C-95.8005383 69.29416475 -99.48899717 69.08742495 -104.23730469 64.86328125 C-107.86564132 61.04397953 -108.54730927 57.98049119 -108.73730469 52.86328125 C-108.54730927 47.74607131 -107.86564132 44.68258297 -104.23730469 40.86328125 C-99.74513219 37.36202916 -95.90129396 36.19408951 -90.36230469 35.48828125 C-82.74044046 34.26749702 -77.76679076 32.35535443 -72.94824219 26.22265625 C-69.65095014 20.76670538 -69.50152827 14.63741072 -68.78027344 8.4296875 C-67.66373658 1.09588786 -64.75880814 -3.22326577 -59.11621094 -7.91015625 C-43.37013396 -18.18930006 -15.21024191 -7.72794482 0 0 Z " fill="#56961B" transform="translate(116.2373046875,435.13671875)"/>
<path d="M0 0 C5.83678496 4.80008106 9.06913788 9.8868347 10.60546875 17.3203125 C10.77980891 19.17201628 10.9248741 21.02667268 11.04296875 22.8828125 C11.52977888 29.57645175 13.45514158 34.68445542 18.54296875 39.1953125 C23.30055083 42.4964919 27.32402714 43.53517554 33.04296875 44.1953125 C39.73782772 45.17762815 43.30210206 46.89571599 47.98046875 51.8203125 C50.3785045 56.98531259 50.3592841 61.7205413 49.60546875 67.3203125 C47.45555536 71.95089518 44.37763527 75.36058633 39.60546875 77.3203125 C35.6335229 77.80184946 31.72388468 77.6981805 27.73046875 77.5703125 C26.66054688 77.55226563 25.590625 77.53421875 24.48828125 77.515625 C21.85974697 77.46868689 19.23307962 77.40304183 16.60546875 77.3203125 C20.35546875 74.3203125 20.35546875 74.3203125 22.60546875 74.3203125 C24.74402423 68.84026408 25.19893679 64.28765272 24.04296875 58.5078125 C22.33745285 55.91246222 20.92126016 55.33105211 17.93359375 54.640625 C14.97398849 54.23343099 12.02601155 54.1019563 9.04296875 53.9453125 C3.59832619 53.58859454 0.58367536 53.08348092 -3.39453125 49.3203125 C-6.25689348 45.1168435 -5.77889586 40.14332249 -5.87304688 35.25195312 C-6.04432711 30.79448945 -6.63513106 27.8662084 -9.39453125 24.3203125 C-16.59163421 20.44494937 -26.05231965 21.69235369 -33.64453125 23.7578125 C-48.24954899 28.71966126 -60.19677001 37.6334653 -71.45703125 47.9453125 C-81.47823446 57.02702791 -90.51267864 62.08905608 -104.296875 61.734375 C-108.81346804 61.13064377 -112.24857621 59.65223533 -115.39453125 56.3203125 C-117.99991856 51.8941719 -118.75788938 48.72433688 -118.6875 43.609375 C-118.67783203 42.36542969 -118.66816406 41.12148438 -118.65820312 39.83984375 C-118.63306641 38.55464844 -118.60792969 37.26945312 -118.58203125 35.9453125 C-118.56849609 34.63691406 -118.55496094 33.32851563 -118.54101562 31.98046875 C-118.50575495 28.75999406 -118.45646758 25.54036644 -118.39453125 22.3203125 C-117.94980469 22.92617188 -117.50507813 23.53203125 -117.046875 24.15625 C-113.13261499 29.28272765 -109.73590788 32.85251977 -103.26953125 33.7578125 C-94.67633882 32.78761335 -88.17874147 27.53377651 -81.421875 22.4921875 C-62.76667449 9.10858559 -22.89115384 -14.45225165 0 0 Z " fill="#589819" transform="translate(454.39453125,426.6796875)"/>
<path d="M0 0 C2.73645736 1.94333579 5.36176173 3.96904235 7.96875 6.08203125 C8.67515625 6.62472656 9.3815625 7.16742188 10.109375 7.7265625 C23.93837014 18.9149818 34.71518452 38.41658183 36.96875 56.08203125 C37.35370266 62.08656184 37.21647246 68.07476163 36.96875 74.08203125 C36.63875 74.08203125 36.30875 74.08203125 35.96875 74.08203125 C35.7728125 73.11265625 35.576875 72.14328125 35.375 71.14453125 C30.72068441 49.68656874 19.75453142 31.1739573 1.1953125 18.91015625 C-18.09298771 6.58485238 -39.50494196 2.21839656 -62.03125 7.08203125 C-82.5765409 12.95714012 -101.43608675 25.06261595 -112.09521484 43.96923828 C-117.08036193 53.48896575 -120.86524045 63.35474343 -122.03125 74.08203125 C-122.36125 74.08203125 -122.69125 74.08203125 -123.03125 74.08203125 C-123.97723719 51.14184184 -117.73375738 30.96318301 -102.390625 13.53857422 C-91.42277187 1.78674021 -77.57247114 -6.12192683 -62.03125 -9.91796875 C-61.00572021 -10.1806958 -61.00572021 -10.1806958 -59.95947266 -10.44873047 C-39.95492328 -15.31001376 -17.33021001 -10.96537772 0 0 Z " fill="#569518" transform="translate(299.03125,331.91796875)"/>
<path d="M0 0 C-2.78058858 1.85372572 -4.59397367 2.57008283 -7.75 3.4375 C-12.00507782 4.66374721 -15.93021959 6.2457843 -20 8 C-22.80687359 8.94655153 -25.62310851 9.85478089 -28.44921875 10.7421875 C-39.1793459 14.54317863 -49.52979563 19.41293133 -59.90820312 24.0703125 C-65.86666169 26.71688262 -71.77511286 29.05757448 -78 31 C-75.288373 33.89198751 -72.66358851 35.93917256 -69.25 37.9375 C-54.27015681 47.26230199 -41.18604574 59.77719191 -28.6875 72.125 C-28.00494141 72.79442627 -27.32238281 73.46385254 -26.61914062 74.15356445 C-22.58164052 78.18460058 -19.18141596 82.26172092 -16 87 C-19.72673412 85.63753806 -22.81121603 83.92142539 -26.125 81.75 C-54.65922178 63.74259247 -86.0936747 51.48828086 -118 41 C-118 37.33021648 -117.38198536 36.92394327 -114.875 34.375 C-86.55635242 7.29622316 -37.71979744 -1.35070893 0 0 Z " fill="#4C2801" transform="translate(415,168)"/>
<path d="M0 0 C28.70862159 -1.40933233 59.66980347 4.61209547 86 16 C86.64743164 16.27956543 87.29486328 16.55913086 87.96191406 16.84716797 C99.84211666 22.10576927 110.23110468 29.39744209 119 39 C118 41 118 41 115.8840332 41.84692383 C114.94906006 42.13075928 114.01408691 42.41459473 113.05078125 42.70703125 C111.99012451 43.03944824 110.92946777 43.37186523 109.83666992 43.71435547 C108.67369385 44.07674316 107.51071777 44.43913086 106.3125 44.8125 C75.49687719 54.76154984 44.68896807 68.60078717 18 87 C17.34 86.67 16.68 86.34 16 86 C29.226102 71.6482723 42.2241161 57.58763423 58 46 C58.62535645 45.54044922 59.25071289 45.08089844 59.89501953 44.60742188 C70.37579536 36.94726653 70.37579536 36.94726653 74.83984375 34.34375 C77.12682892 33.1823874 77.12682892 33.1823874 78 31 C76.79859375 30.62617188 75.5971875 30.25234375 74.359375 29.8671875 C67.82241477 27.68734892 61.5602492 24.88065603 55.25 22.125 C44.26300198 17.33610195 33.18433038 12.91509744 21.94921875 8.74609375 C19.65808272 7.86912585 17.39416292 6.93229174 15.125 6 C10.17290112 4.00070542 5.13850851 2.44315558 0 1 C0 0.67 0 0.34 0 0 Z " fill="#4C2801" transform="translate(97,168)"/>
<path d="M0 0 C3.50711322 2.51597253 4.82130601 3.96754583 5.5625 8.25 C4.26220039 16.91866404 0.08431193 22.87651868 -6 29 C-6.47695312 29.51175781 -6.95390625 30.02351563 -7.4453125 30.55078125 C-19.54171363 42.2988567 -39.34278545 47.40254366 -55.3671875 50.32421875 C-57.98624718 50.81142017 -60.53128908 51.36117681 -63.1171875 51.98046875 C-79.29115087 55.60448907 -96.45525872 56.28821054 -113 56.5 C-114.84126465 56.54568115 -114.84126465 56.54568115 -116.71972656 56.59228516 C-126.1513225 56.59626922 -126.1513225 56.59626922 -129.2734375 53.65625 C-131.41606316 50.35990283 -131.80309148 48.85483909 -131 45 C-129.18359375 42.3515625 -129.18359375 42.3515625 -126 40 C-122.15339721 39.28366036 -118.34104281 39.35391382 -114.4375 39.375 C-103.41383684 39.21304838 -92.63372726 38.36160174 -81.69311523 37.01513672 C-74.42116539 36.14951779 -67.32239106 35.82896243 -60 36 C-60 35.34 -60 34.68 -60 34 C-58.82566406 33.8040625 -57.65132813 33.608125 -56.44140625 33.40625 C-40.97390683 30.61883221 -24.19746327 25.88993278 -14 13 C-12.70060722 10.40874715 -11.71791968 7.94664503 -10.9140625 5.1640625 C-8.83491444 0.24163505 -5.01092275 -0.81810984 0 0 Z " fill="#181E1B" transform="translate(219,96)"/>
<path d="M0 0 C3.48234346 2.16469999 4.18258977 4.47179855 5.1875 8.25 C7.76190401 16.558923 15.15463191 20.71236241 22.375 24.8125 C27.4555451 27.43645212 32.38503225 29.22085996 37.953125 30.4921875 C40 31 40 31 41 32 C42.0725 32.144375 43.145 32.28875 44.25 32.4375 C48 33 48 33 50.109375 33.96875 C54.3278454 35.47371782 58.55584655 35.69215388 63 36.0625 C64.77103346 36.21778627 66.54187575 36.37527152 68.3125 36.53515625 C69.09238281 36.600979 69.87226563 36.66680176 70.67578125 36.73461914 C73 37 73 37 75.21289062 37.5065918 C79.2256054 38.21697166 83.2134273 38.25046165 87.28125 38.359375 C89.11071996 38.42326296 90.94014646 38.48840544 92.76953125 38.5546875 C95.63972243 38.65598258 98.50931114 38.75023676 101.38037109 38.82324219 C104.16105972 38.89660625 106.93925946 39.00037414 109.71875 39.109375 C110.57408325 39.12417908 111.4294165 39.13898315 112.31066895 39.15423584 C116.65854767 39.35119364 118.50423781 39.61392957 122.04101562 42.36816406 C124 45 124 45 124.625 48 C123.75562087 52.17301981 122.40101272 53.43101309 119 56 C115.59149236 56.68743663 112.27605723 56.56235766 108.8125 56.4375 C107.80727295 56.41792236 106.8020459 56.39834473 105.76635742 56.37817383 C69.83652697 55.45746328 22.72673643 53.56926052 -4 26 C-8.88562386 20.44677537 -11.93055426 15.40279976 -12.375 7.875 C-12 4 -12 4 -10.5 1.5 C-6.96259709 -0.62244174 -4.02307126 -0.78802427 0 0 Z " fill="#181E1A" transform="translate(300,96)"/>
<path d="M0 0 C7.7206268 2.61362859 12.32024978 5.63068362 16.06640625 13.13671875 C17.60490329 17.2765393 18.15215993 21.16704877 18.4375 25.5625 C18.92431013 32.25613925 20.84967283 37.36414292 25.9375 41.875 C30.69508208 45.1761794 34.71855839 46.21486304 40.4375 46.875 C47.13235897 47.85731565 50.69663331 49.57540349 55.375 54.5 C57.77303575 59.66500009 57.75381535 64.4002288 57 70 C54.85008661 74.63058268 51.77216652 78.04027383 47 80 C43.02805415 80.48153696 39.11841593 80.377868 35.125 80.25 C34.05507813 80.23195313 32.98515625 80.21390625 31.8828125 80.1953125 C29.25427822 80.14837439 26.62761087 80.08272933 24 80 C27.75 77 27.75 77 30 77 C32.13855548 71.51995158 32.59346804 66.96734022 31.4375 61.1875 C29.7319841 58.59214972 28.31579141 58.01073961 25.328125 57.3203125 C22.36851974 56.91311849 19.4205428 56.7816438 16.4375 56.625 C10.99285744 56.26828204 7.97820661 55.76316842 4 52 C1.13763777 47.796531 1.61563539 42.82300999 1.52148438 37.93164062 C1.35073855 33.4880847 0.95433968 30.40595849 -2 27 C-6.71965111 24.68861661 -11.24404525 24.75438081 -16.375 24.875 C-17.11105469 24.88402344 -17.84710938 24.89304687 -18.60546875 24.90234375 C-20.4037888 24.92569856 -22.20193911 24.96156164 -24 25 C-21.68634679 21.99630987 -19.44869241 19.37964651 -16.5 17 C-10.46662118 11.86934263 -5.2959629 5.86969222 0 0 Z " fill="#508E16" transform="translate(447,424)"/>
<path d="M0 0 C0.33 0 0.66 0 1 0 C1 12.87 1 25.74 1 39 C1.99 39.495 1.99 39.495 3 40 C1.44210317 41.13136586 -0.12153857 42.25482321 -1.6875 43.375 C-2.55761719 44.00148438 -3.42773438 44.62796875 -4.32421875 45.2734375 C-9.24793489 48.4504923 -13.11350583 49.60894767 -19 49 C-23.85332279 47.11768404 -27.09845415 44.35231877 -30 40 C-31.0592918 36.82212459 -31.11458939 34.57411057 -31.09765625 31.23828125 C-31.09443359 30.12001953 -31.09121094 29.00175781 -31.08789062 27.84960938 C-31.07951172 26.68236328 -31.07113281 25.51511719 -31.0625 24.3125 C-31.05573242 22.54422852 -31.05573242 22.54422852 -31.04882812 20.74023438 C-31.03703273 17.82677211 -31.0205727 14.91341137 -31 12 C-29.85402344 11.95101563 -28.70804687 11.90203125 -27.52734375 11.8515625 C-25.99737465 11.77647199 -24.46742782 11.70092694 -22.9375 11.625 C-22.18533203 11.5940625 -21.43316406 11.563125 -20.65820312 11.53125 C-14.53561873 11.21319367 -9.02324658 10.70851933 -4.1875 6.625 C-2.35923464 4.43108156 -1.06943161 2.62496849 0 0 Z " fill="#E48900" transform="translate(367,412)"/>
<path d="M0 0 C0.33 0 0.66 0 1 0 C1.15855469 0.60328125 1.31710938 1.2065625 1.48046875 1.828125 C2.97886717 6.96076049 4.10518492 10.26801019 9 13 C13.92322513 14.05234857 18.86184855 14.30334556 23.875 14.5625 C24.65875 14.60568359 25.4425 14.64886719 26.25 14.69335938 C28.16650649 14.79853351 30.08323333 14.89967925 32 15 C32.11686443 19.02058602 32.18747388 23.04073082 32.25 27.0625 C32.28351563 28.19623047 32.31703125 29.32996094 32.3515625 30.49804688 C32.43035979 37.25491486 32.18158242 41.58161151 28 47 C24.47609501 50.36843859 20.89657305 51.84093059 16.125 52.6875 C10.13064048 52.3076594 4.8909425 48.37483584 0.37809753 44.66764832 C-1.38922751 42.52899226 -1.33733639 41.457428 -1.2487793 38.7121582 C-1.22853195 37.85149246 -1.20828461 36.99082672 -1.18742371 36.1040802 C-1.15006607 35.17899155 -1.11270844 34.25390289 -1.07421875 33.30078125 C-1.04777786 32.35059616 -1.02133698 31.40041107 -0.99409485 30.4214325 C-0.90627477 27.38448658 -0.79714493 24.34872874 -0.6875 21.3125 C-0.6242472 19.25459996 -0.56238095 17.1966568 -0.50195312 15.13867188 C-0.35072443 10.09180663 -0.18038009 5.04590406 0 0 Z " fill="#E48900" transform="translate(144,409)"/>
<path d="M0 0 C2 3 2 3 3.5625 6.625 C10.96773195 21.32775143 27.86429963 28.36237338 42.671875 33.3984375 C58.25090152 38.31472138 74.74460213 40.71799223 91 42 C91.67337402 42.05639648 92.34674805 42.11279297 93.04052734 42.17089844 C102.10073219 42.90615636 111.16207455 43.11763127 120.25 43.1875 C121.73342896 43.20707764 121.73342896 43.20707764 123.24682617 43.22705078 C129.84896289 43.25553936 129.84896289 43.25553936 136 41 C136.4869307 47.33009915 136.4869307 47.33009915 134.3984375 50.20336914 C131.23382515 52.57392923 129.30783794 52.5022522 125.375 52.49609375 C124.72397812 52.49877258 124.07295624 52.50145142 123.40220642 52.50421143 C121.26734899 52.5046528 119.13454266 52.47297922 117 52.4375 C116.2684671 52.43134674 115.5369342 52.42519348 114.78323364 52.41885376 C100.07032992 52.29288335 85.5725708 51.07087793 71 49 C70.19836426 48.88785156 69.39672852 48.77570313 68.57080078 48.66015625 C46.56556973 45.4376953 19.79220739 38.10935804 5.4375 19.875 C1.01707339 13.26391949 -0.48114981 7.85878017 0 0 Z " fill="#59A11A" transform="translate(288,108)"/>
<path d="M0 0 C0.33 0 0.66 0 1 0 C1.7263676 9.00695824 -0.86442781 14.89351459 -6.30859375 22.0234375 C-25.32903768 44.20159302 -62.2790433 48.96183438 -89.34448242 51.47973633 C-97.31878761 52.090049 -105.30958978 52.26837658 -113.30450439 52.35046387 C-114.80177321 52.36673369 -116.29899043 52.38888655 -117.79608154 52.41711426 C-119.90749336 52.45284194 -122.01722743 52.46090575 -124.12890625 52.4609375 C-125.35681885 52.46915527 -126.58473145 52.47737305 -127.84985352 52.48583984 C-131 52 -131 52 -133.41381836 50.20556641 C-135.63718641 47.114 -135.28525774 44.70835067 -135 41 C-134.28980713 41.32307129 -133.57961426 41.64614258 -132.84790039 41.97900391 C-127.84536936 43.77245309 -122.70385537 43.38171413 -117.4375 43.375 C-116.18203369 43.37411377 -114.92656738 43.37322754 -113.63305664 43.37231445 C-103.00385448 43.2810925 -92.49630243 42.36314745 -81.9375 41.1875 C-81.17863495 41.10481873 -80.4197699 41.02213745 -79.63790894 40.93695068 C-70.56681794 39.9299397 -61.80936114 38.45169774 -53 36 C-51.25047011 35.56062385 -49.50052908 35.12287822 -47.75 34.6875 C-31.43232352 30.14303887 -13.02370851 23.81564554 -3.59375 8.75390625 C-2.1340618 5.91272744 -1.00939728 3.02819184 0 0 Z " fill="#59A01A" transform="translate(223,108)"/>
<path d="M0 0 C4.98669007 2.49334503 8.49675474 5.99350949 11 11 C11.54360446 15.95482094 11.56437074 19.87125852 9.3125 24.375 C5.0130325 29.25547662 1.79098196 31.81698479 -4.8125 32.25 C-9.53312813 32.16354161 -13.04911551 30.97724779 -16.4453125 27.53515625 C-20.60485482 22.67443394 -21.35325009 19.78507009 -21.28125 13.5390625 C-20.73016315 8.56397287 -17.99302299 5.87480597 -14.375 2.6875 C-9.71860985 -0.62098774 -5.60468123 -0.62082623 0 0 Z " fill="#5C9E14" transform="translate(221,464)"/>
<path d="M0 0 C4.41987731 4.00872593 6.3612968 8.11330218 7.1875 14 C6.40127745 19.40528005 4.16180312 22.78974946 0.5625 26.8125 C-3.6344653 29.18469778 -7.52568607 29.61728644 -12.3125 29.4375 C-18.19996131 27.79673209 -20.93052877 25.31151736 -24.3125 20.4375 C-25.125 18.5 -25.125 18.5 -25.3125 16.4375 C-25.43625 15.365 -25.56 14.2925 -25.6875 13.1875 C-25.19245248 8.23702482 -23.61133716 5.13668148 -20.3125 1.4375 C-13.83932837 -3.71289308 -7.24463068 -3.41727862 0 0 Z " fill="#68AB20" transform="translate(297.3125,418.5625)"/>
<path d="M0 0 C26.18787501 6.17916152 51.28795573 18.58078778 75 31 C76.55460937 31.79470703 76.55460937 31.79470703 78.140625 32.60546875 C86.35520474 37.10332913 92.39221993 43.89666264 97 52 C91.85584313 50.21892736 87.35958404 47.36657475 82.6875 44.625 C55.22340259 28.8113964 26.29568438 16.33158211 -4 7 C-4 4 -4 4 -2 1.8125 C-1.34 1.214375 -0.68 0.61625 0 0 Z " fill="#5AA018" transform="translate(301,210)"/>
<path d="M0 0 C1.75 1.5625 1.75 1.5625 3 3 C2.67 3.99 2.34 4.98 2 6 C-0.08764648 6.9921875 -0.08764648 6.9921875 -2.87109375 7.875 C-3.90685547 8.2143457 -4.94261719 8.55369141 -6.00976562 8.90332031 C-7.70649414 9.44617676 -7.70649414 9.44617676 -9.4375 10 C-37.4441639 19.35357694 -64.51394879 31.63287214 -89.70703125 47.07421875 C-92.44800162 48.67718244 -95.01820515 49.93791307 -98 51 C-97.06558465 49.72689688 -96.12732889 48.456612 -95.1875 47.1875 C-94.66542969 46.47980469 -94.14335938 45.77210938 -93.60546875 45.04296875 C-92 43 -92 43 -90.42578125 41.48828125 C-88.88912933 40.08725152 -88.88912933 40.08725152 -88.34008789 38.15112305 C-86.35389504 34.96286558 -83.39298531 33.73276673 -80.1328125 32.09375 C-79.43465927 31.73219315 -78.73650604 31.37063629 -78.01719666 30.99812317 C-75.72654282 29.81832738 -73.4267367 28.65800849 -71.125 27.5 C-70.33978973 27.10082367 -69.55457947 26.70164734 -68.74557495 26.29037476 C-50.45199222 16.99669416 -31.81519689 8.65378243 -12.5 1.6875 C-11.68668213 1.39077393 -10.87336426 1.09404785 -10.03540039 0.78833008 C-6.27773097 -0.50628125 -3.78241407 -1.33459266 0 0 Z " fill="#599F18" transform="translate(212,211)"/>
<path d="M0 0 C0.84664719 -0.00761353 1.69329437 -0.01522705 2.56559753 -0.02307129 C4.34456458 -0.03380147 6.12359425 -0.0367545 7.90258789 -0.03222656 C10.58915005 -0.0312559 13.27283423 -0.07292246 15.95898438 -0.1171875 C25.89462746 -0.18601159 33.93073207 0.45969924 42.79296875 5.46875 C43.6135376 5.93055664 44.43410645 6.39236328 45.27954102 6.86816406 C47.16447457 7.99290275 48.9882594 9.21933583 50.79296875 10.46875 C50.79296875 10.79875 50.79296875 11.12875 50.79296875 11.46875 C24.72296875 11.46875 -1.34703125 11.46875 -28.20703125 11.46875 C-19.86673475 3.1284535 -11.69471174 0.00297843 0 0 Z " fill="#93D327" transform="translate(245.20703125,354.53125)"/>
<path d="M0 0 C1.58458008 0.02707031 1.58458008 0.02707031 3.20117188 0.0546875 C5.7809255 0.10137987 8.35870817 0.16684412 10.9375 0.25 C9.9375 2.25 9.9375 2.25 7.57617188 3.1027832 C6.53009766 3.39499756 5.48402344 3.68721191 4.40625 3.98828125 C-3.74863693 6.39495112 -11.6331179 9.37877077 -19.5625 12.4375 C-20.67153687 12.86295105 -20.67153687 12.86295105 -21.80297852 13.29699707 C-41.1975935 20.65873684 -41.1975935 20.65873684 -60.0625 29.25 C-62.10083424 27.9760411 -64.10102126 26.63938077 -66.0625 25.25 C-66.0625 24.59 -66.0625 23.93 -66.0625 23.25 C-61.90736137 21.34024477 -57.74870302 19.43843194 -53.58691406 17.54321289 C-52.17809664 16.90041194 -50.77018313 16.25562535 -49.36328125 15.60864258 C-41.06544644 11.79460208 -32.80703166 8.31302735 -24.15454102 5.37084961 C-21.44956375 4.3903087 -18.99780174 3.25929363 -16.44140625 1.953125 C-11.0965531 -0.50706673 -5.77948563 -0.18961089 0 0 Z " fill="#5A9E19" transform="translate(403.0625,175.75)"/>
<path d="M0 0 C21.44904863 -3.00375681 38.09271135 5.33282707 57.05596924 14.10723877 C60.65495693 15.76000926 64.28890268 17.33249863 67.91870117 18.91601562 C70.95940249 20.24833255 73.98130792 21.61863944 77 23 C76 26 76 26 73.3125 27.84765625 C70 29 70 29 67.1875 28.18359375 C66.135625 27.60738281 65.08375 27.03117187 64 26.4375 C56.25817922 22.45113873 48.27124274 19.1554153 40.1875 15.9375 C39.53264618 15.67582031 38.87779236 15.41414062 38.20309448 15.14453125 C29.08898637 11.510077 19.9318789 8.11928865 10.56640625 5.18359375 C6.92425868 3.9748635 3.50291373 2.5593616 0 1 C0 0.67 0 0.34 0 0 Z " fill="#5AA019" transform="translate(98,176)"/>
<path d="M0 0 C0 0.33 0 0.66 0 1 C-26.07 1 -52.14 1 -79 1 C-74.6214239 -3.3785761 -74.27045865 -3.50532979 -68.52246094 -3.609375 C-67.20719421 -3.64200439 -65.89192749 -3.67463379 -64.5368042 -3.70825195 C-63.10267147 -3.72319572 -61.66852743 -3.73708545 -60.234375 -3.75 C-58.75708083 -3.77516062 -57.27980572 -3.80146394 -55.80255127 -3.82885742 C-52.70579739 -3.88169235 -49.60927722 -3.92019566 -46.51220703 -3.94873047 C-42.55964786 -3.98634878 -38.60874619 -4.05997927 -34.65694809 -4.1446228 C-31.6045941 -4.2058385 -28.55220726 -4.24732667 -25.49945831 -4.28308105 C-24.04344516 -4.30252839 -22.58749919 -4.32805766 -21.13170624 -4.35998535 C-13.16809588 -4.52333025 -6.86074844 -4.46377858 0 0 Z " fill="#A9DD35" transform="translate(296,365)"/>
<path d="M0 0 C4.0743356 0.84881992 5.54405875 2.30225596 8 5.625 C8.625 8.625 8.625 8.625 8 11.625 C5.54405875 14.94774404 4.0743356 16.40118008 0 17.25 C-4.0743356 16.40118008 -5.54405875 14.94774404 -8 11.625 C-8.625 8.625 -8.625 8.625 -8 5.625 C-5.54405875 2.30225596 -4.0743356 0.84881992 0 0 Z " fill="#5C9E14" transform="translate(112,479.375)"/>
<path d="M0 0 C4.0743356 0.84881992 5.54405875 2.30225596 8 5.625 C8.625 8.625 8.625 8.625 8 11.625 C5.54405875 14.94774404 4.0743356 16.40118008 0 17.25 C-4.0743356 16.40118008 -5.54405875 14.94774404 -8 11.625 C-8.625 8.625 -8.625 8.625 -8 5.625 C-5.54405875 2.30225596 -4.0743356 0.84881992 0 0 Z " fill="#68AB20" transform="translate(424,455.375)"/>
<path d="M0 0 C0 0.33 0 0.66 0 1 C-11.22 1 -22.44 1 -34 1 C-23.75488175 -4.12255912 -10.82714438 -2.79410178 0 0 Z " fill="#7BC716" transform="translate(273,354)"/>
<path d="M0 0 C2.10016728 3.60680903 2.8147535 7.24080674 3.625 11.3125 C3.88539063 12.58738281 4.14578125 13.86226563 4.4140625 15.17578125 C4.97774338 18.85473844 5.10571609 22.28552102 5 26 C4.67 26 4.34 26 4 26 C3.12867639 22.60833365 2.28101682 19.21117918 1.4375 15.8125 C1.19064453 14.85279297 0.94378906 13.89308594 0.68945312 12.90429688 C0.46064453 11.97294922 0.23183594 11.04160156 -0.00390625 10.08203125 C-0.21861572 9.22843018 -0.4333252 8.3748291 -0.65454102 7.49536133 C-1.03643718 4.7368025 -0.69085484 2.68152472 0 0 Z " fill="#E4C811" transform="translate(363,361)"/>
<path d="M0 0 C0.99 0.66 1.98 1.32 3 2 C2.01 4.97 1.02 7.94 0 11 C-0.66 11 -1.32 11 -2 11 C-1 3.57142857 -1 3.57142857 0 0 Z " fill="#EAD412" transform="translate(148,361)"/>
<path d="M0 0 C5.61 0 11.22 0 17 0 C14.08235 1.9451 12.37462715 2.45276317 9 3 C9 2.34 9 1.68 9 1 C6.03 1 3.06 1 0 1 C0 0.67 0 0.34 0 0 Z " fill="#7D6A11" transform="translate(398,168)"/>
<path d="M0 0 C4.62 0 9.24 0 14 0 C14 0.33 14 0.66 14 1 C12.02 1 10.04 1 8 1 C8 1.66 8 2.32 8 3 C4.62537285 2.45276317 2.91765 1.9451 0 0 Z " fill="#7C630E" transform="translate(97,168)"/>
<path d="M0 0 C2.12046792 3.53411321 2.53199289 6.94393835 3 11 C2.67 10.01 2.34 9.02 2 8 C1.34 8 0.68 8 0 8 C-1.125 2.25 -1.125 2.25 0 0 Z " fill="#EBD311" transform="translate(363,361)"/>
</svg>
