<?xml version="1.0" encoding="UTF-8"?>
<svg version="1.1" xmlns="http://www.w3.org/2000/svg" width="512" height="512">
<path d="M0 0 C3.39526497 0.01611213 6.78934029 0.0000094 10.18457031 -0.01904297 C52.55112235 -0.06039385 94.81941089 8.47181098 132.39550781 28.39111328 C133.03955566 28.72449707 133.68360352 29.05788086 134.34716797 29.40136719 C151.72269742 38.42755954 166.96316486 50.22268097 180.89892578 63.92529297 C182.15259712 65.15319553 183.42961005 66.35720543 184.71191406 67.55517578 C191.01136226 73.53647002 196.18178662 80.47135073 201.39550781 87.39111328 C202.0500293 88.25446289 202.0500293 88.25446289 202.71777344 89.13525391 C209.4735086 98.10531198 215.14698561 107.47109377 220.39550781 117.39111328 C220.7382373 118.03274414 221.0809668 118.674375 221.43408203 119.33544922 C232.91968574 140.98710428 240.83432012 164.116792 246.14550781 188.01611328 C246.42527466 189.2638855 246.42527466 189.2638855 246.71069336 190.53686523 C247.33128914 193.48003169 247.87320587 196.42878794 248.39550781 199.39111328 C248.52119141 200.08695526 248.646875 200.78279724 248.77636719 201.49972534 C251.48997765 216.90193978 251.95536258 232.08901828 251.89550781 247.70361328 C251.89374542 248.93412415 251.89198303 250.16463501 251.89016724 251.43243408 C251.82813217 270.89060834 250.82867258 289.39340719 246.39550781 308.39111328 C246.13318359 309.53515625 245.87085938 310.67919922 245.60058594 311.85791016 C237.32586862 346.96096756 223.27110671 380.57845366 201.39550781 409.39111328 C200.73035156 410.26896484 200.06519531 411.14681641 199.37988281 412.05126953 C194.09050215 418.83500773 188.29185659 425.13792495 182.39550781 431.39111328 C181.66589844 432.17486328 180.93628906 432.95861328 180.18457031 433.76611328 C174.35099228 439.83823912 167.89912867 444.97658729 161.19091797 450.03564453 C160.04008182 450.90448357 158.89349551 451.77899797 157.75244141 452.66064453 C119.11654837 482.4624353 66.73258165 496.39736324 18.42285156 496.59423828 C17.30149307 496.59993835 16.18013458 496.60563843 15.02479553 496.61151123 C12.6574089 496.62090656 10.29000952 496.62747329 7.92260742 496.63134766 C4.39444411 496.64094614 0.86689166 496.67197846 -2.66113281 496.70361328 C-66.49342977 497.00195503 -128.28991068 477.18302362 -174.60449219 432.39111328 C-175.40113281 431.64603516 -176.19777344 430.90095703 -177.01855469 430.13330078 C-183.62620862 423.80583005 -189.12299044 416.68739691 -194.60449219 409.39111328 C-195.03938965 408.81699707 -195.47428711 408.24288086 -195.92236328 407.65136719 C-202.67991293 398.67973983 -208.35485201 389.31324584 -213.60449219 379.39111328 C-213.94722168 378.74948242 -214.28995117 378.10785156 -214.64306641 377.44677734 C-226.12867012 355.79512229 -234.04330449 332.66543456 -239.35449219 308.76611328 C-239.54100342 307.93426514 -239.72751465 307.10241699 -239.91967773 306.24536133 C-240.54026558 303.30223254 -241.08181084 300.35332764 -241.60449219 297.39111328 C-241.73050812 296.69693298 -241.85652405 296.00275269 -241.98635864 295.28753662 C-244.522691 280.97025713 -245.10283541 266.88739666 -245.05053711 252.36425781 C-245.04205031 248.7905865 -245.07088247 245.21853363 -245.10253906 241.64501953 C-245.1674773 220.53638 -242.78556969 199.71163585 -237.41699219 179.26611328 C-236.97589111 177.55101562 -236.97589111 177.55101562 -236.52587891 175.80126953 C-228.06584783 143.94554274 -214.57227147 113.6909568 -194.60449219 87.39111328 C-193.93933594 86.51326172 -193.27417969 85.63541016 -192.58886719 84.73095703 C-187.29948653 77.94721883 -181.50084097 71.64430161 -175.60449219 65.39111328 C-174.87488281 64.60736328 -174.14527344 63.82361328 -173.39355469 63.01611328 C-167.03720441 56.3998379 -159.9124403 50.89926903 -152.60449219 45.39111328 C-152.05164551 44.96685059 -151.49879883 44.54258789 -150.92919922 44.10546875 C-108.37857741 11.55328902 -52.61939121 -0.29527428 0 0 Z " fill="#FCB500" transform="translate(252.6044921875,7.60888671875)"/>
<path d="M0 0 C9.4549909 6.63861063 13.70147724 15.44390595 16.5546875 26.44140625 C18.74001252 41.40419284 16.87064138 57.75379575 8.30078125 70.49609375 C3.73100026 76.09279182 -0.2948154 78.59153943 -7.5625 79.5 C-14.1428303 78.67745871 -18.59901283 75.29464842 -22.6484375 70.23828125 C-31.31911686 56.89693207 -33.21676747 39.76408922 -30.375 24.328125 C-27.52129837 14.19748421 -22.6416894 6.25366761 -14.0625 0.0625 C-9.75139836 -2.09305082 -4.47480977 -1.36983973 0 0 Z " fill="#303938" transform="translate(351.0625,160.9375)"/>
<path d="M0 0 C9.4549909 6.63861063 13.70147724 15.44390595 16.5546875 26.44140625 C18.74001252 41.40419284 16.87064138 57.75379575 8.30078125 70.49609375 C3.73100026 76.09279182 -0.2948154 78.59153943 -7.5625 79.5 C-14.1428303 78.67745871 -18.59901283 75.29464842 -22.6484375 70.23828125 C-31.31911686 56.89693207 -33.21676747 39.76408922 -30.375 24.328125 C-27.52129837 14.19748421 -22.6416894 6.25366761 -14.0625 0.0625 C-9.75139836 -2.09305082 -4.47480977 -1.36983973 0 0 Z " fill="#2E3636" transform="translate(175.0625,160.9375)"/>
<path d="M0 0 C0.33 0.66 0.66 1.32 1 2 C-0.03910046 4.40329961 -1.13124399 6.64181246 -2.375 8.9375 C-2.73859619 9.61119629 -3.10219238 10.28489258 -3.47680664 10.97900391 C-6.97384099 17.26277247 -11.14882054 22.68958668 -16 28 C-17.04607422 29.16789062 -17.04607422 29.16789062 -18.11328125 30.359375 C-36.43685009 49.78838767 -66.22049626 63.11018112 -92.88378906 64.10791016 C-96.31902086 64.17073108 -99.75171259 64.18561531 -103.1875 64.1875 C-104.34314453 64.19974609 -105.49878906 64.21199219 -106.68945312 64.22460938 C-138.87714466 64.27882783 -167.7183708 49.94247152 -190.3359375 27.703125 C-197.02658012 20.71562793 -203.84634197 11.62123318 -206 2 C-205.57517334 2.36641602 -205.15034668 2.73283203 -204.71264648 3.11035156 C-170.92204474 32.17574085 -135.30032879 49.82393449 -89.70898438 46.85058594 C-56.48880289 44.10576452 -25.31432742 26.12164703 -2 3 C-1.34 2.01 -0.68 1.02 0 0 Z " fill="#603001" transform="translate(359,320)"/>
<path d="M0 0 C2.98152338 2.82390981 5.30688113 5.74153288 7.625 9.125 C25.03188513 33.23177278 52.5472946 45.55943101 81 51 C81.76707275 51.17273438 82.53414551 51.34546875 83.32446289 51.5234375 C97.86430909 54.11325224 114.80399684 52.81018267 129 49 C129.9580957 48.75056641 129.9580957 48.75056641 130.93554688 48.49609375 C154.83546888 42.15098171 175.14379039 29.77612727 191.30859375 10.9453125 C192.81033769 9.21813356 194.35996543 7.594896 196 6 C192.09048471 22.22247324 175.90622398 36.15196032 162.1171875 44.6796875 C134.28496116 60.90274991 100.89072559 64.80000358 69.72216797 57.46386719 C50.49866529 52.36635949 34.38875408 43.73471981 20 30 C19.38640625 29.46117187 18.7728125 28.92234375 18.140625 28.3671875 C12.1565225 22.90463522 8.13424983 15.89485568 4 9 C3.61763184 8.36449219 3.23526367 7.72898437 2.84130859 7.07421875 C0 2.24836538 0 2.24836538 0 0 Z " fill="#F6BC05" transform="translate(156,331)"/>
<path d="M0 0 C4.043493 0.6198055 6.99993367 2.82357908 10.3125 5.0625 C44.93607471 27.71877473 86.3206586 36.02937786 127 28 C148.40427519 23.12036619 169.57275784 15.20153197 186.828125 1.37109375 C187.54484375 0.91863281 188.2615625 0.46617187 189 0 C189.99 0.33 190.98 0.66 192 1 C160.25834928 27.27355123 125.11063626 43.16195592 83 40 C69.05902246 38.28925978 55.69913355 35.04857151 43 29 C42.36868164 28.71286133 41.73736328 28.42572266 41.08691406 28.12988281 C26.11045311 21.31570358 12.17838809 12.09471796 0 1 C0 0.67 0 0.34 0 0 Z " fill="#E98B05" transform="translate(160,328)"/>
<path d="M0 0 C9.46624272 6.64651085 13.69925674 15.45925249 16.5625 26.46484375 C17.06403919 29.93904752 17.04354635 33.37454363 17 36.875 C16.99548828 37.56787109 16.99097656 38.26074219 16.98632812 38.97460938 C16.97463156 40.67061068 16.95669924 42.36656703 16.9375 44.0625 C14.9375 43.0625 14.9375 43.0625 14.296875 41.2421875 C14.09578125 40.48164063 13.8946875 39.72109375 13.6875 38.9375 C12.08470134 33.97908839 10.09116514 30.30481245 5.9375 27.0625 C-0.82854262 23.62012744 -7.73354543 23.50895138 -15.0625 25.0625 C-18.18700913 26.45855727 -19.84096004 27.84096004 -22.25 30.25 C-22.848125 30.848125 -23.44625 31.44625 -24.0625 32.0625 C-24.7225 32.0625 -25.3825 32.0625 -26.0625 32.0625 C-26.25585938 32.84496094 -26.44921875 33.62742188 -26.6484375 34.43359375 C-26.90882813 35.44550781 -27.16921875 36.45742187 -27.4375 37.5 C-27.69273437 38.50933594 -27.94796875 39.51867187 -28.2109375 40.55859375 C-29.0625 43.0625 -29.0625 43.0625 -31.0625 44.0625 C-31.70975811 30.05655364 -30.56369306 17.22584031 -21.0625 6.0625 C-14.54699983 -0.37138638 -9.1395457 -2.79782011 0 0 Z " fill="#030301" transform="translate(175.0625,160.9375)"/>
<path d="M0 0 C9.46830296 6.64795739 13.6648921 15.44079378 16.5625 26.43359375 C17.08287866 30.08166499 17.04269628 33.69983599 17 37.375 C16.99548828 38.11556641 16.99097656 38.85613281 16.98632812 39.61914062 C16.97462175 41.43362899 16.95668898 43.24807534 16.9375 45.0625 C14.73231198 42.85731198 14.4766055 41.81391217 13.6875 38.875 C11.80235038 33.10811372 9.25314614 28.74940769 3.7109375 25.9296875 C-3.97163115 23.22249664 -11.88712093 23.48274011 -19.4375 26.5625 C-25.70666585 30.08248247 -28.20094936 37.46245683 -30.0625 44.0625 C-30.3925 44.0625 -30.7225 44.0625 -31.0625 44.0625 C-31.70975811 30.05655364 -30.56369306 17.22584031 -21.0625 6.0625 C-14.54699983 -0.37138638 -9.1395457 -2.79782011 0 0 Z " fill="#030300" transform="translate(351.0625,160.9375)"/>
<path d="M0 0 C7.92511852 6.86843605 12.48596112 15.62154754 13.5625 26.0625 C13.66115322 27.51987713 13.75039823 28.97810837 13.8125 30.4375 C12.67163 28.20374052 11.60198902 25.96217426 10.5859375 23.66796875 C7.42664416 16.79341705 4.21006287 11.65252543 -2.1875 7.4375 C-7.47610587 5.67463138 -12.32864948 5.52629877 -17.375 8 C-24.06854491 13.80107226 -27.13509514 19.01217821 -30.109375 27.44921875 C-30.99450348 29.90256398 -31.95943968 32.14326003 -33.1875 34.4375 C-32.62970885 21.83141998 -28.9451952 9.86555153 -19.625 1 C-12.96643141 -3.2683132 -7.1481758 -3.50400774 0 0 Z " fill="#E9A205" transform="translate(353.1875,154.5625)"/>
<path d="M0 0 C7.92511852 6.86843605 12.48596112 15.62154754 13.5625 26.0625 C13.66115322 27.51987713 13.75039823 28.97810837 13.8125 30.4375 C12.67163 28.20374052 11.60198902 25.96217426 10.5859375 23.66796875 C7.42664416 16.79341705 4.21006287 11.65252543 -2.1875 7.4375 C-7.47610587 5.67463138 -12.32864948 5.52629877 -17.375 8 C-24.06854491 13.80107226 -27.13509514 19.01217821 -30.109375 27.44921875 C-30.99450348 29.90256398 -31.95943968 32.14326003 -33.1875 34.4375 C-32.62970885 21.83141998 -28.9451952 9.86555153 -19.625 1 C-12.96643141 -3.2683132 -7.1481758 -3.50400774 0 0 Z " fill="#E9A205" transform="translate(177.1875,154.5625)"/>
<path d="M0 0 C3.76393718 1.25464573 3.97875126 2.33508499 5.8125 5.75 C8.92979133 11.17036477 11.87867475 14.95955825 18 17 C23.92346018 17.58073139 28.2482764 16.51045703 33 13 C34.68298738 11.00095865 36.14686071 8.93490121 37.61328125 6.7734375 C39.41071671 4.47474539 41.18413635 3.66255615 44 3 C41.39347153 12.87737105 36.65420486 19.56386343 28.125 25.25 C23.76253038 26.78969516 19.95225705 26.25970647 15.5625 25.0625 C8.34850181 21.6017306 3.49499937 14.24624842 0.609375 7.01953125 C-0.11933003 4.60452805 -0.32325247 2.50520662 0 0 Z " fill="#FBCC01" transform="translate(322,222)"/>
<path d="M0 0 C3.76393718 1.25464573 3.97875126 2.33508499 5.8125 5.75 C8.92979133 11.17036477 11.87867475 14.95955825 18 17 C23.92346018 17.58073139 28.2482764 16.51045703 33 13 C34.68298738 11.00095865 36.14686071 8.93490121 37.61328125 6.7734375 C39.41071671 4.47474539 41.18413635 3.66255615 44 3 C41.39347153 12.87737105 36.65420486 19.56386343 28.125 25.25 C23.76253038 26.78969516 19.95225705 26.25970647 15.5625 25.0625 C8.34850181 21.6017306 3.49499937 14.24624842 0.609375 7.01953125 C-0.11933003 4.60452805 -0.32325247 2.50520662 0 0 Z " fill="#FBCC01" transform="translate(146,222)"/>
<path d="M0 0 C0.66 0 1.32 0 2 0 C1.77192509 1.79458945 1.51677697 3.58575449 1.25 5.375 C1.11078125 6.37273437 0.9715625 7.37046875 0.828125 8.3984375 C0 11 0 11 -2.078125 12.3515625 C-2.71234375 12.56554687 -3.3465625 12.77953125 -4 13 C-3.52140759 11.39566191 -3.04210442 9.79153584 -2.5625 8.1875 C-2.29566406 7.29417969 -2.02882813 6.40085938 -1.75390625 5.48046875 C-1.19612127 3.64526945 -0.60655425 1.81966274 0 0 Z " fill="#E7BE07" transform="translate(366,214)"/>
<path d="M0 0 C0.66 0 1.32 0 2 0 C1.77192509 1.79458945 1.51677697 3.58575449 1.25 5.375 C1.11078125 6.37273437 0.9715625 7.37046875 0.828125 8.3984375 C0 11 0 11 -2.078125 12.3515625 C-2.71234375 12.56554687 -3.3465625 12.77953125 -4 13 C-3.52140759 11.39566191 -3.04210442 9.79153584 -2.5625 8.1875 C-2.29566406 7.29417969 -2.02882812 6.40085938 -1.75390625 5.48046875 C-1.19612127 3.64526945 -0.60655425 1.81966274 0 0 Z " fill="#E7BE07" transform="translate(190,214)"/>
</svg>
