<?xml version="1.0" encoding="UTF-8"?>
<svg version="1.1" xmlns="http://www.w3.org/2000/svg" width="512" height="512">
<path d="M0 0 C3.39526497 0.01611213 6.78934029 0.0000094 10.18457031 -0.01904297 C52.55112235 -0.06039385 94.81941089 8.47181098 132.39550781 28.39111328 C133.03955566 28.72449707 133.68360352 29.05788086 134.34716797 29.40136719 C151.72269742 38.42755954 166.96316486 50.22268097 180.89892578 63.92529297 C182.15259712 65.15319553 183.42961005 66.35720543 184.71191406 67.55517578 C191.01136226 73.53647002 196.18178662 80.47135073 201.39550781 87.39111328 C202.0500293 88.25446289 202.0500293 88.25446289 202.71777344 89.13525391 C209.4735086 98.10531198 215.14698561 107.47109377 220.39550781 117.39111328 C220.7382373 118.03274414 221.0809668 118.674375 221.43408203 119.33544922 C232.91968574 140.98710428 240.83432012 164.116792 246.14550781 188.01611328 C246.42527466 189.2638855 246.42527466 189.2638855 246.71069336 190.53686523 C247.33128914 193.48003169 247.87320587 196.42878794 248.39550781 199.39111328 C248.52119141 200.08695526 248.646875 200.78279724 248.77636719 201.49972534 C251.48997765 216.90193978 251.95536258 232.08901828 251.89550781 247.70361328 C251.89374542 248.93412415 251.89198303 250.16463501 251.89016724 251.43243408 C251.82813217 270.89060834 250.82867258 289.39340719 246.39550781 308.39111328 C246.13318359 309.53515625 245.87085938 310.67919922 245.60058594 311.85791016 C237.32586862 346.96096756 223.27110671 380.57845366 201.39550781 409.39111328 C200.73035156 410.26896484 200.06519531 411.14681641 199.37988281 412.05126953 C194.09050215 418.83500773 188.29185659 425.13792495 182.39550781 431.39111328 C181.66589844 432.17486328 180.93628906 432.95861328 180.18457031 433.76611328 C174.35099228 439.83823912 167.89912867 444.97658729 161.19091797 450.03564453 C160.04008182 450.90448357 158.89349551 451.77899797 157.75244141 452.66064453 C119.11654837 482.4624353 66.73258165 496.39736324 18.42285156 496.59423828 C17.30149307 496.59993835 16.18013458 496.60563843 15.02479553 496.61151123 C12.6574089 496.62090656 10.29000952 496.62747329 7.92260742 496.63134766 C4.39444411 496.64094614 0.86689166 496.67197846 -2.66113281 496.70361328 C-66.49342977 497.00195503 -128.28991068 477.18302362 -174.60449219 432.39111328 C-175.40113281 431.64603516 -176.19777344 430.90095703 -177.01855469 430.13330078 C-183.62620862 423.80583005 -189.12299044 416.68739691 -194.60449219 409.39111328 C-195.03938965 408.81699707 -195.47428711 408.24288086 -195.92236328 407.65136719 C-202.67991293 398.67973983 -208.35485201 389.31324584 -213.60449219 379.39111328 C-213.94722168 378.74948242 -214.28995117 378.10785156 -214.64306641 377.44677734 C-226.12867012 355.79512229 -234.04330449 332.66543456 -239.35449219 308.76611328 C-239.54100342 307.93426514 -239.72751465 307.10241699 -239.91967773 306.24536133 C-240.54026558 303.30223254 -241.08181084 300.35332764 -241.60449219 297.39111328 C-241.73050812 296.69693298 -241.85652405 296.00275269 -241.98635864 295.28753662 C-244.522691 280.97025713 -245.10283541 266.88739666 -245.05053711 252.36425781 C-245.04205031 248.7905865 -245.07088247 245.21853363 -245.10253906 241.64501953 C-245.1674773 220.53638 -242.78556969 199.71163585 -237.41699219 179.26611328 C-236.97589111 177.55101562 -236.97589111 177.55101562 -236.52587891 175.80126953 C-228.06584783 143.94554274 -214.57227147 113.6909568 -194.60449219 87.39111328 C-193.93933594 86.51326172 -193.27417969 85.63541016 -192.58886719 84.73095703 C-187.29948653 77.94721883 -181.50084097 71.64430161 -175.60449219 65.39111328 C-174.87488281 64.60736328 -174.14527344 63.82361328 -173.39355469 63.01611328 C-167.03720441 56.3998379 -159.9124403 50.89926903 -152.60449219 45.39111328 C-152.05164551 44.96685059 -151.49879883 44.54258789 -150.92919922 44.10546875 C-108.37857741 11.55328902 -52.61939121 -0.29527428 0 0 Z " fill="#FCB700" transform="translate(252.6044921875,7.60888671875)"/>
<path d="M0 0 C1.91425781 0.46986328 1.91425781 0.46986328 3.8671875 0.94921875 C5.09646973 1.27079956 5.09646973 1.27079956 6.35058594 1.59887695 C16.65814959 4.16381013 27.12075329 5.581625 37.62939453 7.05639648 C40.83352731 7.50698521 44.03592128 7.96863993 47.23828125 8.43164062 C53.44177752 9.3198734 59.65101265 10.15471309 65.8671875 10.94921875 C66.73045654 11.06056152 67.59372559 11.1719043 68.4831543 11.28662109 C85.38826294 13.39041226 102.36022688 13.34995905 119.3671875 13.32421875 C120.48550335 13.32363905 120.48550335 13.32363905 121.62641144 13.32304764 C162.61854023 13.29635854 202.64883024 10.17179725 242.66259766 0.83984375 C243.46244583 0.65514526 244.26229401 0.47044678 245.08638 0.28015137 C246.60800384 -0.07383393 248.12787888 -0.43546776 249.64543152 -0.80651855 C255.11475956 -2.08163724 261.24526194 -3.49284031 266.3671875 -0.67578125 C270.08378542 5.82826511 267.67873074 14.09335211 266.40234375 21.08984375 C262.13986911 29.0291095 250.74938456 32.69310291 242.9921875 36.38671875 C242.3983728 36.670242 241.80455811 36.95376526 241.19274902 37.24588013 C223.54261087 45.64804807 205.87897948 51.44957973 186.8671875 55.94921875 C185.83198975 56.19647705 185.83198975 56.19647705 184.77587891 56.44873047 C164.54270972 61.17600705 143.89227762 62.50920515 123.1796875 62.38671875 C122.09555573 62.3840097 121.01142395 62.38130066 119.8944397 62.37850952 C102.5737785 62.31313053 85.88310407 61.40061383 68.8671875 57.94921875 C67.93390625 57.7672998 67.000625 57.58538086 66.0390625 57.39794922 C40.51885939 52.29846578 2.19929124 42.68294785 -17.1328125 23.94921875 C-19.86266647 17.25700212 -21.3267925 9.14023463 -20.1328125 1.94921875 C-15.76721384 -5.384987 -6.78710111 -1.66592482 0 0 Z " fill="#D8D4D1" transform="translate(132.1328125,306.05078125)"/>
<path d="M0 0 C3.95253745 1.43299167 7.5450431 3.32371131 11.22802734 5.32495117 C34.39524798 17.89018339 59.13019088 26.89717905 85 32 C85.97114746 32.19754883 86.94229492 32.39509766 87.94287109 32.59863281 C130.43626386 40.86067354 177.58392147 38.23889772 219 26 C219.90395508 25.73316406 220.80791016 25.46632813 221.73925781 25.19140625 C241.93278767 19.09909627 260.5008487 10.02386139 279 0 C279.33 0.66 279.66 1.32 280 2 C278.96329624 4.68269832 277.8628027 7.2232446 276.625 9.8125 C276.25995361 10.57715576 275.89490723 11.34181152 275.51879883 12.12963867 C260.03966256 43.67731036 229.99272867 64.51682085 197.47265625 76.0078125 C177.66730835 82.68711563 158.58173915 85.17722246 137.6875 85.1875 C135.7394043 85.20586914 135.7394043 85.20586914 133.75195312 85.22460938 C120.83457438 85.24387946 108.43101874 83.79014298 96 80.25 C95.06140137 79.98687012 94.12280273 79.72374023 93.15576172 79.45263672 C68.96850022 72.49760811 46.88326551 60.65271796 28 44 C27.30648437 43.39027344 26.61296875 42.78054688 25.8984375 42.15234375 C17.41961869 34.19711734 10.99240402 24.24207874 5.5 14.0625 C5.17386719 13.46042725 4.84773438 12.85835449 4.51171875 12.23803711 C2.42410441 8.22326603 1.11289121 4.35696908 0 0 Z " fill="#68111A" transform="translate(116,331)"/>
<path d="M0 0 C9.4826302 6.65801695 14.17606252 15.75698782 16.5546875 26.97265625 C18.41297797 41.97171506 16.9209386 57.67901015 8.30078125 70.49609375 C3.73100026 76.09279182 -0.2948154 78.59153943 -7.5625 79.5 C-14.1428303 78.67745871 -18.59901283 75.29464842 -22.6484375 70.23828125 C-31.31911686 56.89693207 -33.21676747 39.76408922 -30.375 24.328125 C-27.52129837 14.19748421 -22.6416894 6.25366761 -14.0625 0.0625 C-9.75139836 -2.09305082 -4.47480977 -1.36983973 0 0 Z " fill="#303938" transform="translate(351.0625,160.9375)"/>
<path d="M0 0 C9.4826302 6.65801695 14.17606252 15.75698782 16.5546875 26.97265625 C18.41297797 41.97171506 16.9209386 57.67901015 8.30078125 70.49609375 C3.73100026 76.09279182 -0.2948154 78.59153943 -7.5625 79.5 C-14.1428303 78.67745871 -18.59901283 75.29464842 -22.6484375 70.23828125 C-31.0038499 57.38202515 -32.79253624 41.63211737 -30.5625 26.71875 C-28.27541279 16.63477456 -24.34096545 7.58156004 -16.0625 1.0625 C-10.96311626 -2.00533851 -5.57022097 -1.70516969 0 0 Z " fill="#2E3636" transform="translate(175.0625,160.9375)"/>
<path d="M0 0 C8.89456042 1.96985035 17.78462328 3.87923124 26.75 5.5 C27.57258301 5.65049805 28.39516602 5.80099609 29.24267578 5.95605469 C59.53588722 11.35796977 90.00011597 12.55705374 120.70272446 12.61925507 C122.76984445 12.62488385 124.83687153 12.6359048 126.90396118 12.64825439 C153.35502294 12.78646252 179.50313956 11.00249046 205.5625 6.3125 C207.07496637 6.04960538 208.58758379 5.78757846 210.1003418 5.52636719 C214.36194091 4.78592796 218.61889459 4.02129711 222.875 3.25 C224.03418945 3.04165527 225.19337891 2.83331055 226.38769531 2.61865234 C234.66652732 1.12114652 242.78649904 -0.41773285 250.875 -2.75 C255.33369404 -3.28811825 257.10500458 -3.29063508 260.8125 -0.6875 C263.33043836 2.89865463 263.2956933 4.95892835 262.875 9.25 C262.38 8.755 261.885 8.26 261.375 7.75 C255.8555525 4.4383315 248.65985138 6.49069067 242.6953125 7.859375 C241.1249461 8.20365726 239.55455108 8.54780903 237.98413086 8.8918457 C236.76498489 9.16359116 236.76498489 9.16359116 235.52120972 9.44082642 C219.39304584 13.01785658 203.28948931 16.28706424 186.875 18.25 C185.68696777 18.39808105 184.49893555 18.54616211 183.27490234 18.69873047 C139.28626662 23.91448574 91.69658377 24.41883621 47.91363525 17.5604248 C44.16079066 16.98897582 40.39792564 16.48943888 36.63671875 15.9765625 C23.92697096 14.21574767 11.34513821 12.34152544 -1.125 9.25 C-2.40117187 8.93675781 -3.67734375 8.62351562 -4.9921875 8.30078125 C-5.98476562 8.05714844 -6.97734375 7.81351562 -8 7.5625 C-15.99111768 5.48823692 -15.99111768 5.48823692 -23.5625 7.75 C-24.078125 8.245 -24.59375 8.74 -25.125 9.25 C-25.605 2.05 -25.605 2.05 -23.625 -1.25 C-16.81929651 -5.33342209 -7.17544726 -1.64105227 0 0 Z " fill="#ED8E08" transform="translate(137.125,298.75)"/>
<path d="M0 0 C9.49532072 6.66692731 14.17111768 15.77154297 16.5625 26.99609375 C16.99163317 30.50515142 17.03334281 33.90316246 17 37.4375 C16.99097656 38.68273437 16.98195312 39.92796875 16.97265625 41.2109375 C16.96105469 42.15195313 16.94945312 43.09296875 16.9375 44.0625 C14.9375 43.0625 14.9375 43.0625 14.296875 41.2421875 C14.09578125 40.48164063 13.8946875 39.72109375 13.6875 38.9375 C12.08470134 33.97908839 10.09116514 30.30481245 5.9375 27.0625 C-0.82854262 23.62012744 -7.73354543 23.50895138 -15.0625 25.0625 C-18.18700913 26.45855727 -19.84096004 27.84096004 -22.25 30.25 C-22.848125 30.848125 -23.44625 31.44625 -24.0625 32.0625 C-24.7225 32.0625 -25.3825 32.0625 -26.0625 32.0625 C-26.25585938 32.84496094 -26.44921875 33.62742188 -26.6484375 34.43359375 C-26.90882813 35.44550781 -27.16921875 36.45742187 -27.4375 37.5 C-27.69273437 38.50933594 -27.94796875 39.51867187 -28.2109375 40.55859375 C-29.0625 43.0625 -29.0625 43.0625 -31.0625 44.0625 C-31.60368286 30.51288476 -30.29431724 16.82193706 -21.32421875 5.95703125 C-14.95583125 -0.65681872 -9.00856128 -2.75772284 0 0 Z " fill="#030201" transform="translate(175.0625,160.9375)"/>
<path d="M0 0 C9.49208458 6.66465513 14.14798251 15.75242815 16.5625 26.96484375 C17.00667381 30.63390446 17.04645961 34.24932168 17 37.9375 C16.99548828 38.62585938 16.99097656 39.31421875 16.98632812 40.0234375 C16.97466336 41.70316335 16.95673271 43.38284375 16.9375 45.0625 C14.73231198 42.85731198 14.4766055 41.81391217 13.6875 38.875 C11.80235038 33.10811372 9.25314614 28.74940769 3.7109375 25.9296875 C-3.97163115 23.22249664 -11.88712093 23.48274011 -19.4375 26.5625 C-25.70666585 30.08248247 -28.20094936 37.46245683 -30.0625 44.0625 C-30.3925 44.0625 -30.7225 44.0625 -31.0625 44.0625 C-31.70975811 30.05655364 -30.56369306 17.22584031 -21.0625 6.0625 C-14.54699983 -0.37138638 -9.1395457 -2.79782011 0 0 Z " fill="#030200" transform="translate(351.0625,160.9375)"/>
<path d="M0 0 C8.00322308 6.78534131 12.54969729 15.63353669 13.625 26.0625 C13.72365322 27.51987713 13.81289823 28.97810837 13.875 30.4375 C12.73413 28.20374052 11.66448902 25.96217426 10.6484375 23.66796875 C7.48914416 16.79341705 4.27256287 11.65252543 -2.125 7.4375 C-7.41360587 5.67463138 -12.26614948 5.52629877 -17.3125 8 C-24.84071925 14.52445669 -27.90751941 20.97013454 -31.125 30.4375 C-31.455 30.4375 -31.785 30.4375 -32.125 30.4375 C-31.86507945 19.75712848 -28.51117751 9.79570391 -21.0078125 2 C-14.52579099 -3.37927096 -7.49118724 -3.74559362 0 0 Z " fill="#E9A205" transform="translate(353.125,154.5625)"/>
<path d="M0 0 C8.00322308 6.78534131 12.54969729 15.63353669 13.625 26.0625 C13.72365322 27.51987713 13.81289823 28.97810837 13.875 30.4375 C12.73413 28.20374052 11.66448902 25.96217426 10.6484375 23.66796875 C7.48914416 16.79341705 4.27256287 11.65252543 -2.125 7.4375 C-7.41360587 5.67463138 -12.26614948 5.52629877 -17.3125 8 C-24.84071925 14.52445669 -27.90751941 20.97013454 -31.125 30.4375 C-31.455 30.4375 -31.785 30.4375 -32.125 30.4375 C-31.86507945 19.75712848 -28.51117751 9.79570391 -21.0078125 2 C-14.52579099 -3.37927096 -7.49118724 -3.74559362 0 0 Z " fill="#E9A105" transform="translate(177.125,154.5625)"/>
<path d="M0 0 C3.76393718 1.25464573 3.97875126 2.33508499 5.8125 5.75 C8.92979133 11.17036477 11.87867475 14.95955825 18 17 C23.9277149 17.58114852 28.24323515 16.50702419 33 13 C34.70576744 11.01581995 36.16586828 9.00614651 37.578125 6.8046875 C39.18990007 4.75897299 40.61701499 3.98781857 43 3 C42.4341658 10.35584462 38.93285267 16.60395325 33.4375 21.4375 C29.23680705 24.84268066 25.70326698 26.53395997 20.15234375 26.37890625 C14.44437752 25.37405557 9.6084165 21.32686656 6.1640625 16.8046875 C2.71527211 11.45790508 -0.40623354 6.51134329 0 0 Z " fill="#FBCC01" transform="translate(322,222)"/>
<path d="M0 0 C3.76393718 1.25464573 3.97875126 2.33508499 5.8125 5.75 C8.92979133 11.17036477 11.87867475 14.95955825 18 17 C23.9277149 17.58114852 28.24323515 16.50702419 33 13 C34.70576744 11.01581995 36.16586828 9.00614651 37.578125 6.8046875 C39.18990007 4.75897299 40.61701499 3.98781857 43 3 C42.4341658 10.35584462 38.93285267 16.60395325 33.4375 21.4375 C29.23680705 24.84268066 25.70326698 26.53395997 20.15234375 26.37890625 C14.44437752 25.37405557 9.6084165 21.32686656 6.1640625 16.8046875 C2.71527211 11.45790508 -0.40623354 6.51134329 0 0 Z " fill="#FBCC01" transform="translate(146,222)"/>
<path d="M0 0 C0.66 0 1.32 0 2 0 C1.77192509 1.79458945 1.51677697 3.58575449 1.25 5.375 C1.11078125 6.37273437 0.9715625 7.37046875 0.828125 8.3984375 C0 11 0 11 -2.078125 12.3515625 C-2.71234375 12.56554687 -3.3465625 12.77953125 -4 13 C-3.52140759 11.39566191 -3.04210442 9.79153584 -2.5625 8.1875 C-2.29566406 7.29417969 -2.02882813 6.40085938 -1.75390625 5.48046875 C-1.19612127 3.64526945 -0.60655425 1.81966274 0 0 Z " fill="#E7BE07" transform="translate(366,214)"/>
<path d="M0 0 C0.66 0 1.32 0 2 0 C1.77192509 1.79458945 1.51677697 3.58575449 1.25 5.375 C1.11078125 6.37273437 0.9715625 7.37046875 0.828125 8.3984375 C0 11 0 11 -2.078125 12.3515625 C-2.71234375 12.56554687 -3.3465625 12.77953125 -4 13 C-3.52140759 11.39566191 -3.04210442 9.79153584 -2.5625 8.1875 C-2.29566406 7.29417969 -2.02882812 6.40085938 -1.75390625 5.48046875 C-1.19612127 3.64526945 -0.60655425 1.81966274 0 0 Z " fill="#E7BE07" transform="translate(190,214)"/>
</svg>
