<?xml version="1.0" encoding="UTF-8"?>
<svg version="1.1" xmlns="http://www.w3.org/2000/svg" width="512" height="512">
<path d="M0 0 C3.39526497 0.01611213 6.78934029 0.0000094 10.18457031 -0.01904297 C52.55112235 -0.06039385 94.81941089 8.47181098 132.39550781 28.39111328 C133.03955566 28.72449707 133.68360352 29.05788086 134.34716797 29.40136719 C151.72269742 38.42755954 166.96316486 50.22268097 180.89892578 63.92529297 C182.15259712 65.15319553 183.42961005 66.35720543 184.71191406 67.55517578 C189.48637567 72.08850296 193.47740834 77.15029067 197.453125 82.38134766 C202.29084347 88.71552422 205.83010589 92.81045952 213.95800781 94.32861328 C225.7577575 96.92601697 236.80417475 101.72372717 244.11035156 111.74267578 C249.5866399 120.39226567 251.9496698 128.42472208 251.83300781 138.64111328 C251.82688477 139.55916748 251.82076172 140.47722168 251.81445312 141.4230957 C251.60325351 150.66145431 249.67628872 158.48035496 245.08300781 166.57861328 C240.74840151 174.74430525 245.6837448 187.1733258 247.49121094 195.67431641 C251.08725729 213.00661191 251.83752363 229.66710091 251.83300781 247.32861328 C251.83411057 249.1968576 251.83411057 249.1968576 251.8352356 251.10284424 C251.80486092 270.69214824 250.85866718 289.26486953 246.39550781 308.39111328 C246.13318359 309.53515625 245.87085938 310.67919922 245.60058594 311.85791016 C237.32586862 346.96096756 223.27110671 380.57845366 201.39550781 409.39111328 C200.73035156 410.26896484 200.06519531 411.14681641 199.37988281 412.05126953 C194.09050215 418.83500773 188.29185659 425.13792495 182.39550781 431.39111328 C181.66589844 432.17486328 180.93628906 432.95861328 180.18457031 433.76611328 C174.35099228 439.83823912 167.89912867 444.97658729 161.19091797 450.03564453 C160.04008182 450.90448357 158.89349551 451.77899797 157.75244141 452.66064453 C119.11654837 482.4624353 66.73258165 496.39736324 18.42285156 496.59423828 C17.30149307 496.59993835 16.18013458 496.60563843 15.02479553 496.61151123 C12.6574089 496.62090656 10.29000952 496.62747329 7.92260742 496.63134766 C4.39444411 496.64094614 0.86689166 496.67197846 -2.66113281 496.70361328 C-66.49342977 497.00195503 -128.28991068 477.18302362 -174.60449219 432.39111328 C-175.40113281 431.64603516 -176.19777344 430.90095703 -177.01855469 430.13330078 C-183.62620862 423.80583005 -189.12299044 416.68739691 -194.60449219 409.39111328 C-195.03938965 408.81699707 -195.47428711 408.24288086 -195.92236328 407.65136719 C-202.67991293 398.67973983 -208.35485201 389.31324584 -213.60449219 379.39111328 C-213.94722168 378.74948242 -214.28995117 378.10785156 -214.64306641 377.44677734 C-226.12867012 355.79512229 -234.04330449 332.66543456 -239.35449219 308.76611328 C-239.54100342 307.93426514 -239.72751465 307.10241699 -239.91967773 306.24536133 C-240.54026558 303.30223254 -241.08181084 300.35332764 -241.60449219 297.39111328 C-241.73050812 296.69693298 -241.85652405 296.00275269 -241.98635864 295.28753662 C-244.522691 280.97025713 -245.10283541 266.88739666 -245.05053711 252.36425781 C-245.04205031 248.7905865 -245.07088247 245.21853363 -245.10253906 241.64501953 C-245.16586606 220.61405287 -242.73099969 200.09151274 -237.33886719 179.74658203 C-236.13406848 174.24167728 -236.08907426 170.6170164 -238.91699219 165.70361328 C-245.42922719 153.16016063 -246.66515685 138.77593179 -243.91308594 124.90673828 C-243.00848489 122.22699961 -241.96411644 119.86817872 -240.60449219 117.39111328 C-240.19199219 116.60865234 -239.77949219 115.82619141 -239.35449219 115.02001953 C-233.29802946 104.81694453 -223.70588873 98.93720896 -212.60449219 95.39111328 C-211.36828125 95.14876953 -210.13207031 94.90642578 -208.85839844 94.65673828 C-200.45355698 92.99777662 -196.027757 90.74249399 -191.24291992 83.73388672 C-190.45120203 82.55000337 -189.6612723 81.36492242 -188.87304688 80.17871094 C-186.68798197 77.09960293 -184.12891532 74.38371397 -181.54199219 71.64111328 C-181.02983154 71.09672607 -180.5176709 70.55233887 -179.98999023 69.99145508 C-178.99155596 68.9366537 -177.99026258 67.88454974 -176.98583984 66.83544922 C-175.7594118 65.5530971 -174.54619732 64.25813667 -173.33496094 62.96142578 C-167.00430394 56.36062943 -159.88928667 50.88181765 -152.60449219 45.39111328 C-152.05164551 44.96685059 -151.49879883 44.54258789 -150.92919922 44.10546875 C-108.37857741 11.55328902 -52.61939121 -0.29527428 0 0 Z " fill="#FBB200" transform="translate(252.6044921875,7.60888671875)"/>
<path d="M0 0 C9.67981057 6.54723796 17.31296004 14.69035051 23.17724609 24.83447266 C23.73283203 24.55474609 24.28841797 24.27501953 24.86083984 23.98681641 C27.31098032 22.76794382 29.76564734 21.56661286 32.23974609 20.39697266 C33.09697266 19.98576172 33.95419922 19.57455078 34.83740234 19.15087891 C43.68948496 15.66181242 51.86455108 14.30399987 61.36474609 14.39697266 C63.00286255 14.40833252 63.00286255 14.40833252 64.67407227 14.41992188 C80.53651024 14.74070629 96.56295301 18.65590912 108.43115234 29.85791016 C116.40890219 38.8886516 119.75146907 49.20488643 119.61474609 61.08447266 C119.60789795 62.00397705 119.6010498 62.92348145 119.59399414 63.87084961 C119.41793087 71.37958522 118.14813792 77.89914485 115.17724609 84.83447266 C114.81501953 85.71103516 114.45279297 86.58759766 114.07958984 87.49072266 C99.00089353 120.61274032 59.1436752 145.62920606 28.17724609 161.83447266 C27.56478027 162.15512695 26.95231445 162.47578125 26.32128906 162.80615234 C13.72764925 169.2812674 -2.64355437 177.44150575 -16.82275391 178.83447266 C-18.50097656 177.88500977 -18.50097656 177.88500977 -19.98681641 176.36181641 C-20.82539185 175.51792358 -20.82539185 175.51792358 -21.6809082 174.65698242 C-22.26396729 174.0349292 -22.84702637 173.41287598 -23.44775391 172.77197266 C-24.36971558 171.81665649 -24.36971558 171.81665649 -25.31030273 170.84204102 C-30.79070559 165.06897115 -35.76198973 158.9709017 -40.50927734 152.58789062 C-41.80259809 150.86137954 -43.12524858 149.16147891 -44.45556641 147.46337891 C-67.44189683 117.69309304 -92.55633889 71.60270615 -88.43212891 32.70556641 C-86.67373958 19.29125772 -81.67155846 6.02215096 -71.45947266 -3.26318359 C-48.84174167 -19.58145765 -22.30467449 -14.26232467 0 0 Z " fill="#EF3145" transform="translate(384.82275390625,85.16552734375)"/>
<path d="M0 0 C12.55177652 9.20323211 20.48690663 22.58859219 22.9140625 37.984375 C23.19826118 40.47687423 23.3816587 42.95226739 23.515625 45.45703125 C23.59490234 46.47990234 23.59490234 46.47990234 23.67578125 47.5234375 C25.63954583 92.51926067 -8.6764626 143.72660402 -37.796875 175.51953125 C-38.27632568 176.04377686 -38.75577637 176.56802246 -39.24975586 177.1081543 C-40.1778305 178.10113151 -41.12241591 179.07897159 -42.08398438 180.03955078 C-43.51381745 181.44434303 -43.51381745 181.44434303 -44.79101562 183.04248047 C-46.16015625 184.515625 -46.16015625 184.515625 -49.484375 186.45703125 C-53.35177774 186.15350743 -56.75270026 184.83035318 -60.359375 183.45703125 C-61.41366699 183.07764404 -62.46795898 182.69825684 -63.55419922 182.30737305 C-95.29642724 170.59662527 -123.16412433 153.77210066 -148.484375 131.45703125 C-149.26554687 130.77060547 -149.26554687 130.77060547 -150.0625 130.0703125 C-167.73753971 114.45152741 -167.73753971 114.45152741 -173.484375 104.45703125 C-173.484375 103.79703125 -173.484375 103.13703125 -173.484375 102.45703125 C-174.144375 102.45703125 -174.804375 102.45703125 -175.484375 102.45703125 C-183.69137494 87.23822553 -187.21834517 72.23500521 -183.79296875 54.97265625 C-182.8883677 52.29291758 -181.84399925 49.93409669 -180.484375 47.45703125 C-179.865625 46.28333984 -179.865625 46.28333984 -179.234375 45.0859375 C-173.12566164 34.79483801 -163.59256703 29.16913593 -152.484375 25.45703125 C-151.56914062 25.13734375 -150.65390625 24.81765625 -149.7109375 24.48828125 C-130.35820305 18.88480854 -109.56485553 21.40069289 -91.984375 30.76953125 C-90.4755496 31.65041902 -88.97158819 32.54012651 -87.484375 33.45703125 C-87.24460937 32.58691406 -87.00484375 31.71679688 -86.7578125 30.8203125 C-81.43480599 16.76169714 -66.15966039 7.11607069 -53.23828125 1.03125 C-36.43972775 -6.20238564 -16.50542011 -10.25100777 0 0 Z " fill="#EE3044" transform="translate(192.484375,77.54296875)"/>
<path d="M0 0 C4.45584638 1.31812819 8.43538525 3.14721289 12.56860352 5.22338867 C40.63582078 19.23957424 71.74936521 28.74108244 103 32 C103.85182861 32.0935376 104.70365723 32.1870752 105.58129883 32.28344727 C116.18586667 33.27781851 126.82226123 33.1860831 137.46411133 33.18530273 C140.79456388 33.18748823 144.1246839 33.20569645 147.45507812 33.22460938 C159.15948065 33.25587524 170.43531321 32.8495164 182 31 C183.97784747 30.72513726 185.95571084 30.45038887 187.93359375 30.17578125 C219.07388461 25.42773476 247.78084475 15.10357731 275.82714844 0.97460938 C278 0 278 0 280 0 C274.07440964 30.30905414 251.52488308 55.39808603 226.625 72.1875 C209.63683948 83.32663314 191.87297778 90.79177029 172 95 C171.30712891 95.15098145 170.61425781 95.30196289 169.90039062 95.45751953 C136.5529126 102.52822221 100.2695522 97.44319408 70 82 C69.38366699 81.68836914 68.76733398 81.37673828 68.13232422 81.05566406 C38.40776241 65.75208961 12.35193201 39.81854226 1.8984375 7.60546875 C1.20437153 5.0789389 0.55871928 2.55946644 0 0 Z " fill="#460B11" transform="translate(116,326)"/>
<path d="M0 0 C2.30499459 0.67566843 4.55572723 1.43507025 6.81640625 2.24609375 C12.92961149 4.35673527 19.3820733 5.26173067 25.734375 6.375 C26.48015808 6.50583984 27.22594116 6.63667969 27.99432373 6.77148438 C29.556806 7.04546464 31.11932688 7.31922476 32.68188477 7.59277344 C34.87380855 7.97783177 37.06491932 8.36720152 39.25585938 8.7578125 C108.93970202 21.12658418 186.56421357 22.8572119 254.64892578 0.82861328 C259.23998039 -0.6424606 263.10802071 -1.43918019 268 -1 C270.9375 0.875 270.9375 0.875 273 4 C273.6792212 7.42198109 273.34432476 10.54757043 273 14 C273.01675781 15.11375 273.03351563 16.2275 273.05078125 17.375 C272.76347876 21.67040777 272.14373954 24.23890449 270 28 C263.9557404 33.12465602 256.23985471 35.98818291 249 39 C248.03755371 39.41121094 247.07510742 39.82242188 246.08349609 40.24609375 C213.96539647 53.86107961 178.72666426 63.12794708 143.69140625 63.16796875 C142.6446019 63.17129715 141.59779755 63.17462555 140.51927185 63.17805481 C138.31501703 63.18308518 136.1107547 63.18546435 133.90649414 63.18530273 C130.60224215 63.18747389 127.29833312 63.20562968 123.99414062 63.22460938 C107.2129965 63.26974281 90.6422075 62.3844453 74.125 59.25 C73.22048096 59.08008545 72.31596191 58.9101709 71.3840332 58.73510742 C43.16130182 53.22615121 12.09555904 44.06370603 -12 28 C-14.39094678 20.67957035 -16.48210081 11.70111205 -15 4 C-11.23129159 -2.4068043 -6.47279438 -1.46097452 0 0 Z " fill="#DBD8D4" transform="translate(127,297)"/>
<path d="M0 0 C5.05428523 4.31209944 9.49907682 8.77982008 12.28515625 14.89453125 C12.28515625 15.55453125 12.28515625 16.21453125 12.28515625 16.89453125 C12.94515625 17.22453125 13.60515625 17.55453125 14.28515625 17.89453125 C-7.02808778 25.434594 -28.09904945 29.02117888 -50.71484375 27.89453125 C-51.58173828 27.85585938 -52.44863281 27.8171875 -53.34179688 27.77734375 C-69.13199932 26.97304879 -85.05510511 23.95614456 -99.71484375 17.89453125 C-99.05484375 17.56453125 -98.39484375 17.23453125 -97.71484375 16.89453125 C-97.34359375 15.87359375 -97.34359375 15.87359375 -96.96484375 14.83203125 C-91.65874923 2.36270912 -80.67520924 -4.01813821 -68.71484375 -9.10546875 C-47.56056106 -17.14806083 -17.90542533 -13.88636583 0 0 Z " fill="#8F050E" transform="translate(298.71484375,396.10546875)"/>
<path d="M0 0 C6.43889576 2.63473415 9.66820362 9.14465645 12.4921875 15.19921875 C19.64706864 33.0864216 19.62247351 49.805051 14 68 C13.79632813 68.68610352 13.59265625 69.37220703 13.3828125 70.07910156 C2.42986445 106.70724729 -17.1818661 139.88609959 -42.54638672 168.33251953 C-43.93543693 169.9259379 -45.2526806 171.5592106 -46.56640625 173.21484375 C-47.77103516 174.62443359 -47.77103516 174.62443359 -49 176.0625 C-49.680625 176.89910156 -50.36125 177.73570312 -51.0625 178.59765625 C-56.85608476 181.36347664 -63.18228866 177.96392928 -68.94384766 175.99291992 C-71.92623399 174.90710944 -74.8703638 173.75297614 -77.8125 172.5625 C-78.88636963 172.12856934 -79.96023926 171.69463867 -81.06665039 171.24755859 C-101.56676883 162.7783223 -134.13389186 149.2991622 -147 130 C-143.9061674 131.40697522 -141.17746549 133.19459523 -138.3840332 135.12133789 C-122.26051964 146.21827424 -105.17225858 155.7109485 -87 163 C-85.97777344 163.41427246 -84.95554688 163.82854492 -83.90234375 164.25537109 C-80.6807624 165.53324564 -77.4414454 166.74470839 -74.1875 167.9375 C-73.17905029 168.33485352 -72.17060059 168.73220703 -71.1315918 169.14160156 C-66.04216332 171.06746892 -66.04216332 171.06746892 -60.94848633 170.0546875 C-59.08211349 168.49670729 -57.56334156 166.85946897 -56 165 C-55.04180853 164.04021234 -54.07971318 163.08430217 -53.11328125 162.1328125 C-27.24733435 134.72120087 -9.14576217 101.49595935 2.9375 66 C3.31527588 64.90308838 3.69305176 63.80617676 4.08227539 62.67602539 C11.01288877 41.70076039 10.63756211 21.68365756 0.84375 1.6328125 C0.42609375 0.82457031 0.42609375 0.82457031 0 0 Z " fill="#ED8C06" transform="translate(206,92)"/>
<path d="M0 0 C2.34683835 0.54769021 4.68206499 1.13221432 7.01782227 1.7253418 C26.75723262 6.55575069 46.63496595 10.91724516 66.8449707 13.19799805 C68.85025602 13.43115518 70.85352941 13.68209899 72.85473633 13.94799805 C91.67221445 16.44723834 110.30147237 16.80869186 129.26782227 16.7878418 C130.47656006 16.78706635 131.68529785 16.78629089 132.93066406 16.78549194 C136.40773445 16.77902427 139.88456653 16.7627456 143.36157227 16.7409668 C144.40829102 16.73658096 145.45500977 16.73219513 146.53344727 16.72767639 C151.71148917 16.67771385 156.64557519 16.38157833 161.76782227 15.5378418 C163.17755556 15.43015804 164.58932182 15.34396607 166.00219727 15.29174805 C167.11208008 15.24244141 167.11208008 15.24244141 168.24438477 15.19213867 C169.74425629 15.13157685 171.24426093 15.07421549 172.74438477 15.02026367 C177.8412716 14.78658287 182.69331726 14.06381313 187.70043945 13.09765625 C191.11466834 12.47454045 194.53398545 11.97691884 197.97094727 11.49487305 C212.42661756 9.45006487 226.71872507 7.11137834 240.95532227 3.8503418 C241.61367065 3.7001358 242.27201904 3.54992981 242.95031738 3.39517212 C250.55095973 1.6673329 250.55095973 1.6673329 258.01635742 -0.55175781 C262.13567471 -1.91475108 264.54793622 -1.43065664 268.76782227 -0.4621582 C270.76782227 1.1003418 270.76782227 1.1003418 271.76782227 3.5378418 C271.99147599 6.25809527 271.90482529 8.79778136 271.76782227 11.5378418 C271.08719727 10.8778418 270.40657227 10.2178418 269.70532227 9.5378418 C265.97151161 6.99567284 264.24343137 7.20614691 259.76782227 7.5378418 C256.8816422 8.23046588 254.0881619 9.17970686 251.26782227 10.1003418 C223.40165552 18.54850189 193.68002476 21.86558691 164.76782227 24.5378418 C163.86402832 24.62259766 162.96023438 24.70735352 162.02905273 24.79467773 C156.60800357 25.2700288 151.20780754 25.45104795 145.76782227 25.5378418 C143.84752197 25.57651367 143.84752197 25.57651367 141.88842773 25.6159668 C104.24160221 26.31940137 68.11635991 22.56966032 30.99047852 16.37768555 C30.04525833 16.22250961 29.10003815 16.06733368 28.12617493 15.90745544 C23.49672131 15.1184962 19.20634023 14.11467815 14.76782227 12.5378418 C13.67469727 12.3934668 12.58157227 12.2490918 11.45532227 12.1003418 C8.47709927 11.64603659 6.24075313 11.05295481 3.45532227 10.0378418 C-1.34468853 8.38860732 -6.12453161 7.19970495 -11.23217773 7.5378418 C-14.33978833 9.26669278 -14.33978833 9.26669278 -16.23217773 11.5378418 C-16.83005623 4.48287555 -16.83005623 4.48287555 -14.29467773 0.4753418 C-9.57637604 -2.50970622 -5.29686426 -1.09668206 0 0 Z " fill="#EC8E07" transform="translate(128.232177734375,289.462158203125)"/>
<path d="M0 0 C0.66 0.33 1.32 0.66 2 1 C1.60167969 1.66902344 1.20335937 2.33804688 0.79296875 3.02734375 C-8.04119343 19.04060609 -9.37822715 37.99228333 -4.37890625 55.49609375 C8.77894625 99.14332599 30.82614137 139.33404403 64 171 C95.58870963 162.66292677 125.79656107 147.92917151 151 127 C151.66 127.33 152.32 127.66 153 128 C128.40086549 149.4235237 100.2825472 165.42876023 69.625 176.5 C68.47773438 176.94102051 67.33046875 177.38204102 66.1484375 177.83642578 C58.23088596 180.55573888 58.23088596 180.55573888 54.79541016 179.00463867 C52.96382306 177.45825099 51.49949022 175.8655883 50 174 C49.30132812 173.35675781 48.60265625 172.71351563 47.8828125 172.05078125 C42.48249868 166.71047092 37.63427262 161.01244996 33 155 C32.52433594 154.38431152 32.04867187 153.76862305 31.55859375 153.13427734 C18.12989865 135.57136441 6.61350525 116.38351242 -2 96 C-2.2995459 95.29246582 -2.5990918 94.58493164 -2.90771484 93.85595703 C-13.49809346 68.48305737 -20.86400214 43.7689616 -11.3125 16.8125 C-8.72940663 10.73819449 -4.67869043 4.67869043 0 0 Z " fill="#ED8C06" transform="translate(304,92)"/>
<path d="M0 0 C0.66 0.33 1.32 0.66 2 1 C2.53515625 2.8359375 2.53515625 2.8359375 3.0625 5.375 C11.18910858 36.62181001 35.08947028 60.74087966 62 77 C84.23013146 89.94321841 107.32777798 96.72084019 133 98 C133.88413574 98.04527832 134.76827148 98.09055664 135.67919922 98.13720703 C174.96734928 99.84042993 212.19651837 86.39557174 242 61 C242.81855469 60.31550781 243.63710938 59.63101563 244.48046875 58.92578125 C261.68155588 44.07150911 275.11742329 23.36685142 280 1 C280.99 1 281.98 1 283 1 C278.9666214 29.92906027 259.83104198 56.70375608 237 74 C236.47422363 74.4007373 235.94844727 74.80147461 235.40673828 75.21435547 C215.52789661 90.25415266 193.58206978 100.42630185 169 105 C167.85402344 105.22429687 166.70804688 105.44859375 165.52734375 105.6796875 C125.68209732 112.23820608 84.55852674 102.18588562 51.75 79.0625 C43.86070727 73.3788865 36.84245625 66.89566353 30 60 C29.24460938 59.25363281 28.48921875 58.50726563 27.7109375 57.73828125 C13.65917999 43.14607152 1.8559005 22.31259228 -1 2 C-0.67 1.34 -0.34 0.68 0 0 Z " fill="#F5BB06" transform="translate(115,325)"/>
<path d="M0 0 C4.21334748 3.30354708 6.45575231 6.48230936 7.98828125 11.7109375 C8.86930666 20.81486676 6.11679007 27.81639007 0.5859375 34.984375 C-2.18615917 37.98013717 -4.35094109 39.53639246 -8.32421875 40.5859375 C-12.66197835 40.7329802 -15.58512319 40.35641665 -19.01171875 37.7109375 C-21.18991301 35.09279113 -23.11238156 32.37585064 -25.03125 29.5625 C-26.80023181 27.01544532 -28.6401622 24.71208456 -30.69921875 22.3984375 C-31.26125 21.76421875 -31.82328125 21.13 -32.40234375 20.4765625 C-33.43484661 19.34381664 -34.48570127 18.22737957 -35.55859375 17.1328125 C-38.03381144 14.49072621 -38.99449268 12.80740349 -39.63671875 9.2109375 C-38.85072466 4.80937059 -37.64598187 2.25345626 -34.01171875 -0.2890625 C-22.88124297 -5.17376858 -10.64856384 -6.82335159 0 0 Z " fill="#FE4B54" transform="translate(191.01171875,99.2890625)"/>
<path d="M0 0 C0.99 0.33 1.98 0.66 3 1 C2.68991116 2.60463449 2.37683713 4.20869231 2.0625 5.8125 C1.88847656 6.70582031 1.71445312 7.59914063 1.53515625 8.51953125 C1 11 1 11 0 14 C-0.99 14.33 -1.98 14.66 -3 15 C-2.86722656 14.41992188 -2.73445313 13.83984375 -2.59765625 13.2421875 C-1.60295999 8.84229018 -0.68631668 4.46105842 0 0 Z " fill="#E5AC09" transform="translate(395,325)"/>
</svg>
