<?xml version="1.0" encoding="UTF-8"?>
<svg version="1.1" xmlns="http://www.w3.org/2000/svg" width="512" height="512">
<path d="M0 0 C168.96 0 337.92 0 512 0 C512 168.96 512 337.92 512 512 C343.04 512 174.08 512 0 512 C0 343.04 0 174.08 0 0 Z " fill="#FEFEFE" transform="translate(0,0)"/>
<path d="M0 0 C0.73412109 0.00870117 1.46824219 0.01740234 2.22460938 0.02636719 C34.11718962 0.49776618 67.61249354 13.55828598 94 31 C94.57911133 31.38236816 95.15822266 31.76473633 95.75488281 32.15869141 C141.0722387 62.49228644 170.25111161 108.93126184 181 162 C190.60474116 211.38114545 177.72635112 264.64333742 150 306 C124.82755803 342.89299956 89.65286356 367.87169227 48 383 C46.98752197 383.3707666 46.98752197 383.3707666 45.95458984 383.74902344 C31.39455806 388.96935769 15.42655168 391.70824489 0 392 C-1.06541016 392.02578125 -2.13082031 392.0515625 -3.22851562 392.078125 C-19.42217199 392.42656301 -35.08359843 392.14264269 -51 389 C-52.09344727 388.79117188 -52.09344727 388.79117188 -53.20898438 388.578125 C-101.78684392 379.04786373 -146.68392497 348.96085088 -174.58935547 308.10888672 C-184.1632591 293.79608306 -191.68149559 279.01524943 -198 263 C-198.27956543 262.29536621 -198.55913086 261.59073242 -198.84716797 260.86474609 C-203.08503765 249.93433007 -205.16587698 238.53317694 -207 227 C-207.12004395 226.24879883 -207.24008789 225.49759766 -207.36376953 224.72363281 C-215.07606969 174.03623535 -202.50190334 122.1296737 -172.32128906 80.7734375 C-146.41341577 45.99982486 -110.0721759 18.76179079 -68 7 C-67.2260791 6.78359863 -66.4521582 6.56719727 -65.65478516 6.34423828 C-43.85211202 0.40268118 -22.50782266 -0.46013913 0 0 Z " fill="#FEFEFE" transform="translate(269,60)"/>
<path d="M0 0 C2.3671875 1.3828125 2.3671875 1.3828125 4.875 3.125 C26.8651947 17.48052925 53.35968457 22.72832594 79.25 17.6875 C81.50649391 17.15164415 83.75769016 16.59241272 86 16 C87.25683594 15.70996094 87.25683594 15.70996094 88.5390625 15.4140625 C99.58209092 12.57020568 111.22361189 7.02667236 120.140625 -0.06640625 C122.84618664 -1.42487102 124.13643223 -0.92559766 127 0 C129.4134932 1.12930079 131.72912712 2.2881425 134.0625 3.5625 C134.7215332 3.91965088 135.38056641 4.27680176 136.05957031 4.64477539 C146.52062968 10.40189389 155.95639198 17.21497157 165 25 C165.92941406 25.7940625 166.85882813 26.588125 167.81640625 27.40625 C174.29115965 33.09754923 179.7513017 39.17387538 185 46 C185.75152344 46.94746094 186.50304687 47.89492188 187.27734375 48.87109375 C192.96991715 56.19845746 197.58524382 63.86818753 202 72 C193.66115484 83.91263595 183.52332055 94.17190989 172 103 C171.01773438 103.79792969 170.03546875 104.59585938 169.0234375 105.41796875 C132.57663013 134.84144137 84.75438732 146.01694113 38.63232422 141.68359375 C32.32780595 140.84121933 26.1769822 139.49624915 20 138 C18.39212703 137.6449267 16.78405552 137.29075121 15.17578125 136.9375 C-23.52233844 128.01541146 -57.45155415 103.72383451 -82 73 C-67.39706929 40.5886172 -39.99651249 17.09971739 -9 1 C-8.31204346 0.62512451 -7.62408691 0.25024902 -6.9152832 -0.13598633 C-4.21745959 -1.353016 -2.7881473 -0.89527666 0 0 Z " fill="#2B79C2" transform="translate(196,293)"/>
<path d="M0 0 C16.51285615 14.48004245 28.52909185 33.8550685 31 56 C32.37998385 80.06313013 27.79812979 102.16261095 12 121 C11.31292969 121.84820312 10.62585938 122.69640625 9.91796875 123.5703125 C-4.08407122 140.07001366 -24.58923444 150.27944529 -46 153 C-71.98484338 154.97866811 -94.34693147 146.82568773 -114 130 C-125.95366818 119.59301716 -135.17164082 103.39979067 -139 88 C-139.20238281 87.25878906 -139.40476563 86.51757812 -139.61328125 85.75390625 C-144.62671697 63.8925981 -140.24916661 40.23340091 -128.6875 21.1875 C-124.96161339 15.65213204 -120.60038992 10.81590368 -116 6 C-115.45988281 5.38511719 -114.91976562 4.77023438 -114.36328125 4.13671875 C-85.22186461 -27.79405263 -31.86613454 -25.84608394 0 0 Z " fill="#3B4651" transform="translate(311,143)"/>
<path d="M0 0 C0.77909729 0.00115814 1.55819458 0.00231628 2.36090088 0.00350952 C15.20875609 0.04108403 27.67073867 0.89464567 40.3125 3.3125 C42.21322266 3.65474609 42.21322266 3.65474609 44.15234375 4.00390625 C47.57129645 4.67692844 50.93471767 5.4573158 54.3125 6.3125 C55.56160156 6.62574219 56.81070312 6.93898438 58.09765625 7.26171875 C94.51926661 16.93289393 125.15836777 36.72201864 152.3125 62.3125 C153.0446875 63.00214844 153.776875 63.69179687 154.53125 64.40234375 C159.93960275 69.64973362 164.7116274 75.35251122 169.3125 81.3125 C169.79879883 81.93882324 170.28509766 82.56514648 170.78613281 83.21044922 C190.22299128 108.48564041 203.40596557 137.40881145 210.5625 168.4375 C210.71364258 169.08017822 210.86478516 169.72285645 211.02050781 170.38500977 C213.85517204 183.47533559 214.64777311 196.74298913 214.57324219 210.09692383 C214.56248568 212.37803595 214.57324172 214.65836392 214.5859375 216.93945312 C214.59535093 226.88737502 213.78194443 236.47110752 212.3125 246.3125 C212.19213379 247.16593994 212.07176758 248.01937988 211.94775391 248.89868164 C210.41503952 259.40752007 207.79914856 269.29961963 204.3125 279.3125 C204.05452637 280.06289551 203.79655273 280.81329102 203.53076172 281.58642578 C184.78880619 335.68125013 146.17138935 380.47243875 94.51953125 405.69921875 C82.77646528 411.23782976 70.70792536 415.49124928 58.3125 419.3125 C57.29027344 419.63992188 56.26804687 419.96734375 55.21484375 420.3046875 C46.48399184 422.92259364 37.33120882 424.11162158 28.3125 425.3125 C27.58409912 425.41111328 26.85569824 425.50972656 26.10522461 425.61132812 C17.76872564 426.59511109 9.38263789 426.55613914 1 426.5625 C0.19948212 426.56317474 -0.60103577 426.56384949 -1.42581177 426.56454468 C-14.07503055 426.54764135 -26.2733546 425.91464704 -38.6875 423.3125 C-39.53731445 423.14089355 -40.38712891 422.96928711 -41.26269531 422.79248047 C-74.35030215 415.9738742 -105.58550939 401.89514932 -131.6875 380.3125 C-132.2542041 379.84730957 -132.8209082 379.38211914 -133.40478516 378.90283203 C-145.67997319 368.77334822 -156.99503817 357.98847207 -166.6875 345.3125 C-167.16799805 344.69197754 -167.64849609 344.07145508 -168.14355469 343.43212891 C-181.34349512 326.27220635 -191.39405779 307.81004844 -198.87646484 287.50488281 C-199.6099464 285.52214217 -200.37098768 283.55330057 -201.14453125 281.5859375 C-204.65515452 272.35861953 -206.75438535 262.9663432 -208.6875 253.3125 C-208.9040625 252.26707031 -209.120625 251.22164062 -209.34375 250.14453125 C-211.76142542 237.82505282 -211.92790339 225.38393376 -211.9375 212.875 C-211.93817474 212.07947723 -211.93884949 211.28395447 -211.93954468 210.46432495 C-211.92260696 197.85269049 -211.28189791 185.68967638 -208.6875 173.3125 C-208.51589355 172.46268555 -208.34428711 171.61287109 -208.16748047 170.73730469 C-200.74310017 134.71015097 -184.73698614 102.12172247 -160.6875 74.3125 C-159.8728125 73.36761719 -159.058125 72.42273438 -158.21875 71.44921875 C-149.76986636 61.88472548 -140.81667936 53.0873615 -130.6875 45.3125 C-130.06407715 44.82910156 -129.4406543 44.34570312 -128.79833984 43.84765625 C-111.32878181 30.41146777 -92.27585474 20.13134184 -71.6875 12.3125 C-71.05360352 12.06951172 -70.41970703 11.82652344 -69.76660156 11.57617188 C-61.93557403 8.62851433 -53.94714092 6.53468872 -45.8125 4.625 C-44.96389404 4.42237549 -44.11528809 4.21975098 -43.2409668 4.01098633 C-28.94391753 0.80308339 -14.60365266 -0.06797772 0 0 Z M-143.08203125 79.4609375 C-180.44731899 120.35548031 -196.70440776 171.47782024 -194.6875 226.3125 C-194.35588188 232.36683366 -193.63022147 238.32550545 -192.6875 244.3125 C-192.56391113 245.12992676 -192.44032227 245.94735352 -192.31298828 246.78955078 C-184.66385855 295.95722954 -156.28666193 340.60236791 -116.6875 370.3125 C-116.12546875 370.74062988 -115.5634375 371.16875977 -114.984375 371.60986328 C-91.08247915 389.75268668 -62.29500463 402.26652573 -32.6875 407.3125 C-30.91246094 407.61994141 -30.91246094 407.61994141 -29.1015625 407.93359375 C-14.71822027 410.01501553 -0.18193962 409.56747076 14.3125 409.3125 C15.11494141 409.30379883 15.91738281 409.29509766 16.74414062 409.28613281 C43.65196436 408.90324425 70.95518482 399.1870676 94.3125 386.3125 C94.90530762 385.99458496 95.49811523 385.67666992 96.10888672 385.34912109 C140.6931272 361.42438982 171.21311686 321.31405977 188.3125 274.3125 C188.76367188 273.08015625 189.21484375 271.8478125 189.6796875 270.578125 C191.83268444 264.13582408 193.17857119 257.52819922 194.5 250.875 C194.66741699 250.0406543 194.83483398 249.20630859 195.00732422 248.34667969 C199.42666934 224.71298883 198.96218354 198.86154377 194.3125 175.3125 C194.10367188 174.21905273 194.10367188 174.21905273 193.890625 173.10351562 C183.99309598 122.65361075 152.46514318 78.28200434 110.23535156 49.58740234 C99.14609722 42.23492823 87.60870827 36.25084547 75.32861328 31.15136719 C73.55400971 30.41298769 71.78976642 29.64981214 70.02734375 28.8828125 C-3.34393032 -1.60176847 -89.36146847 24.39140934 -143.08203125 79.4609375 Z " fill="#3D4853" transform="translate(254.6875,42.6875)"/>
</svg>
