<svg width="24" height="24"><path fill="currentColor" d="M21.2 3.01 21 3H3l-.21.01c-.49.05-.95.28-1.28.64C1.18 4.02.99 4.5 1 5v14l.01.2c.04.46.25.88.57 1.21.33.32.75.53 1.21.58L3 21h18l.2-.02c.46-.04.88-.25 1.21-.57.32-.33.53-.75.58-1.21L23 19V5c0-.5-.19-.98-.52-1.35-.33-.36-.79-.59-1.28-.64M3 15V5h18v10zm4.87-8.28-.08.07L4.58 10l3.21 3.2c.09.1.2.17.32.23.12.05.26.08.39.08s.26-.03.39-.08c.12-.05.23-.12.32-.22.1-.09.17-.2.22-.32.05-.13.08-.26.08-.39s-.03-.27-.08-.39c-.06-.12-.13-.23-.23-.32L7.41 10 9.2 8.2l.07-.07c.15-.2.23-.44.21-.68a.98.98 0 0 0-.29-.65.98.98 0 0 0-.65-.29.96.96 0 0 0-.67.21m6.92.07a1 1 0 0 0-.29.71c0 .26.1.51.29.7l1.79 1.8-1.79 1.79-.07.07c-.15.2-.23.44-.22.68.01.25.12.48.29.66.18.17.41.28.66.29.24.01.48-.07.68-.22l.07-.07 3.21-3.2-3.21-3.21a.98.98 0 0 0-.7-.29c-.27 0-.52.1-.71.29M3 19v-2h18v2z"/></svg>